<svg xmlns="http://www.w3.org/2000/svg" viewBox="0 0 980 770"><title>email-bo</title><path d="M910,682.5A18,18,0,0,1,892.5,700H87.5A18,18,0,0,1,70,682.5v-420a299.2,299.2,0,0,0,37.7,36.1c78.2,60.2,157,121.4,233,184.8,41,34.5,91.9,76.6,148.7,76.6h1c56.9,0,107.7-42.1,148.8-76.6,76-63.4,154.8-124.7,233-184.8a292.5,292.5,0,0,0,37.7-36.1v420h0Zm0-574.8c0,46.5-44.8,107.2-80.4,135.1Q719.6,328.9,610.3,416.2c-29,23.5-81.5,73.8-119.8,73.8h-1c-38.3,0-90.8-50.3-119.8-73.8q-109.1-87-219.3-173.3C101.2,204,70,149.9,70,87.5A18,18,0,0,1,87.5,70h805C913.3,70,910,94.1,910,107.7Zm70-20.2C980,39.4,940.6,0,892.5,0H87.5C39.4,0,0,39.4,0,87.5v595C0,730.6,39.4,770,87.5,770h805c48.1,0,87.5-39.4,87.5-87.5V87.5Z"/></svg>