<?xml version="1.0" encoding="utf-8"?>
<!-- Generator: Adobe Illustrator 19.2.0, SVG Export Plug-In . SVG Version: 6.00 Build 0)  -->
<svg version="1.1" id="Layer_1" xmlns="http://www.w3.org/2000/svg" xmlns:xlink="http://www.w3.org/1999/xlink" x="0px" y="0px"
	 viewBox="0 0 16 16" style="enable-background:new 0 0 16 16;" xml:space="preserve">
<style type="text/css">
	.st0{fill:#CC3333;}
</style>
<g>
	<path class="st0" d="M14.8,6H1.2C0.6,6,0,6.6,0,7.2v0.5C0,8.4,0.6,9,1.2,9h13.5C15.4,9,16,8.4,16,7.8V7.2C16,6.6,15.4,6,14.8,6z
		 M14.8,0H1.2C0.6,0,0,0.6,0,1.2v0.5C0,2.4,0.6,3,1.2,3h13.5C15.4,3,16,2.4,16,1.8V1.2C16,0.6,15.4,0,14.8,0z M14.8,12H1.2
		C0.6,12,0,12.6,0,13.2v0.5C0,14.4,0.6,15,1.2,15h13.5c0.7,0,1.2-0.6,1.2-1.2v-0.5C16,12.6,15.4,12,14.8,12z"/>
</g>
</svg>
