<svg xmlns="http://www.w3.org/2000/svg" xmlns:xlink="http://www.w3.org/1999/xlink" viewBox="0 0 1200.8 336.7"><defs><style>.a{fill:#7e7f80;}.a,.b,.j,.k,.l,.m{fill-rule:evenodd;}.b{fill:#cdcccb;}.c{fill:url(#a);}.d{fill:url(#c);}.e{fill:url(#d);}.f{fill:url(#e);}.g{fill:url(#f);}.h{fill:url(#h);}.i{fill:#fff;}.j{fill:#cecece;}.k{fill:#dbdbdc;}.l{fill:#fffbfc;}.m{fill:#2b2f82;}</style><linearGradient id="a" x1="957.93" y1="181.57" x2="960.93" y2="42.07" gradientUnits="userSpaceOnUse"><stop offset="0"/><stop offset="0.14" stop-color="#030303"/><stop offset="0.24" stop-color="#0c0c0c"/><stop offset="0.33" stop-color="#1c1c1c"/><stop offset="0.41" stop-color="#333"/><stop offset="0.49" stop-color="#505050"/><stop offset="0.56" stop-color="#737373"/><stop offset="0.59" stop-color="#828282"/><stop offset="1"/></linearGradient><linearGradient id="c" x1="382.94" y1="169.2" x2="385.94" y2="29.71" xlink:href="#a"/><linearGradient id="d" x1="285.01" y1="167.09" x2="288.01" y2="27.6" xlink:href="#a"/><linearGradient id="e" x1="358.45" y1="168.67" x2="361.45" y2="29.18" xlink:href="#a"/><linearGradient id="f" x1="536.21" y1="172.5" x2="539.21" y2="33" xlink:href="#a"/><linearGradient id="h" x1="805.55" y1="287.19" x2="805.55" y2="186.69" gradientUnits="userSpaceOnUse"><stop offset="0" stop-color="#070992"/><stop offset="0.16" stop-color="#0a0c93"/><stop offset="0.27" stop-color="#131597"/><stop offset="0.38" stop-color="#23249e"/><stop offset="0.47" stop-color="#3a3aa8"/><stop offset="0.56" stop-color="#5756b5"/><stop offset="0.64" stop-color="#7a78c4"/><stop offset="0.65" stop-color="#7f7dc6"/><stop offset="0.68" stop-color="#6c6bbe"/><stop offset="0.75" stop-color="#4848ae"/><stop offset="0.81" stop-color="#2b2ca2"/><stop offset="0.87" stop-color="#171999"/><stop offset="0.94" stop-color="#0b0d94"/><stop offset="1" stop-color="#070992"/></linearGradient></defs><title>logo-tom-nehl</title><path class="a" d="M317.8,267.2v-1.5c0.7,0.2.9,0.8,1.8,0.7H320c2.3,1.3,4.3-.8,5.1-2.2s0.3-.1.4-0.4h0.4c-0.3.6,1.7,0.6,1.5,0s0.3-.1.4-0.4,1,0.1,1.1-.4h2.9c0.6,0,1.4.2,1.5-.4v-0.4h2.9c0.4,0.1,2.3-.1,1.1-0.4v-0.4h2.9c0.6,0,1.4.2,1.5-.4s1.4,0.2,1.5-.4h1.1c0.6,0,1.4.2,1.5-.4s1.9,0.4,1.8-.4,1.4,0.2,1.5-.4c2.1,0.6,2.5-3.4,1.1-4,0.6-.5,0-1.5-0.7-1.8a1.1,1.1,0,0,0-.7-0.7c-0.6-.2,0-1.7-0.7-1.8v-0.4c1.3,0.3.5-1.4,0.7-2.2v-4.4c-0.8-7.4,1.8-11.3,5.9-13.9h0.7c0.2,1.5-1.1,1.6-.7,3.3v0.4c-0.4.1-.3,0.7-0.4,1.1s-0.2,1.6-.4,2.2v0.7h-0.4c-0.8,0-.2,1.6-0.4,2.2v1.1a13.5,13.5,0,0,0,0,7v1.1c0.2,0.8-.5,2.4.4,2.6s-0.2,1.4.4,1.5a1.8,1.8,0,0,0,.7,1.8,4.1,4.1,0,0,0,.7,2.9c0,2.3,2.2,5.3,5.1,5.9,0,0.4.4,0.3,0.7,0.4s0.1,0.3.4,0.4,1-.2,1.1-0.7,0.4-.3.7-0.4a11.4,11.4,0,0,0,2.6-2.6c0.3,0.7,1-1.2,1.1-1.8V258a1.1,1.1,0,0,0,.7-1.8v-0.7a1.6,1.6,0,0,0,.7-1.5v-2.2h0.4c0.8-.2.1-1.8,0.4-2.6v-1.5a9.6,9.6,0,0,0,0-5.9v-1.5c-0.2-.8.5-2.4-0.4-2.6s0.1-1-.4-1.1,0.2-1.4-.4-1.5,0.1-1-.4-1.1v-0.4c0.2-1.3-.4-1.8-0.7-2.6s-0.4-2.2-.4-1.1h-0.4v-0.7c0.6-.3-0.4-2-1.5-1.8v-0.7a6.2,6.2,0,0,0-1.5-1.1h-1.5c0.3-.6-1.7-0.6-1.5,0h-0.7a1.5,1.5,0,0,0-1.5,1.1c-0.6-.1-0.7.3-0.7,0.7s-0.7,1.7-1.5,2.2-1.8-.8-3.3-0.7a2.4,2.4,0,0,0-1.5.4c0.1-.3,0-0.7.4-0.7s0.3-.9.4-1.5h-1.5v-0.4c0.1-.7,3.3,0,2.2-0.7v-0.4c0.4-.1,1,0.1,1.1-0.4s0.8,0.3.7-.7-0.2.4-.7,0.4v-1.5h-5.1c0.6-4.6,6-4.5,9.1-6.6h0.7a10.7,10.7,0,0,0,4.4-.7h0.4c11.5-.8,19.3,2.2,24.9,7.3h0.4c0.3-.1.3,0.1,0.4,0.4a0.6,0.6,0,0,0-.7.4H387c-0.5-1-1.5.6-1.8,1.1s-0.1.3-.4,0.4-1.8,1.6-1.1,1.8-0.9,1-.7,2.2-0.8.9-.7,1.8V232c-0.7.4-.8,1.4-0.7,2.6v0.7h-0.4c-0.5.1-.3,0.9-0.4,1.5v1.1c-0.5.1-.3,0.9-0.4,1.5v8.8c0,0.6-.2,1.4.4,1.5v0.7c0,0.6-.2,1.4.4,1.5h0.4v1.1c-0.1,1.1.1,1.9,0.7,2.2a2.4,2.4,0,0,0,.4,1.8c-0.8.3,0.2,1.7,0.7,1.8h0.4v0.4a1,1,0,0,0,.7,1.1c0.2,1.1,1.3,1.4,1.8,2.2s0.9,0.8,1.8.7h0.7c0.4,0.1,2.3-.1,1.1-0.4v-0.4c1.2,0.4.9-.6,1.5-0.7s1.3-.1,1.1-1.1a1,1,0,0,0,.7-1.1c0.6-.1.8-0.6,0.7-1.5a1.1,1.1,0,0,0,.7-1.8v-0.4c0.6-.3.8-1.1,0.7-2.2v-0.7h0.4c0.3,1.2.5-.6,0.4-1.1v-1.5c0.8,0.1.2-1.3,0.4-1.8a25,25,0,0,0,0-9.5h-0.4v-1.8c0.4,0,.3-0.4.4-0.7s0.6,2.9,1.8,3.3v0.4c-0.8,0-.2,1.6-0.4,2.2s-0.1,2.1-.4,2.9v2.2c-0.8.2-.1,1.8-0.4,2.6s-1.2,3.4-.4,4.4v1.5h-0.4c-0.5.1-.3,0.9-0.4,1.5v2.6c-0.9,1-1,2.9-1.5,4.4v0.4c-1,.6-1.1,2-1.8,2.9s-0.2.7-.7,0.7h-0.7c-0.4.9-2,.4-2.6,1.1h-4.4c-1.3.1-3.2-.3-4,0.4-0.3-.8-2.1-0.1-2.9-0.4h-0.7c-0.8-.6-4-0.6-4.8,0h-0.7v-1.1c0.6-.1.8-0.6,0.7-1.5v-0.4c0.6-.3.8-1.1,0.7-2.2v-0.7c0.8-.4.8-1.7,0.7-2.9v-0.7h0.4c0.8,0.1.2-1.3,0.4-1.8v-1.1c0.8,0.1.2-1.3,0.4-1.8-0.2-2.7.5-6.3-.4-8.4v-0.4c0.5-.1.3-0.9,0.4-1.5s0.5-2.4-.4-2.6v-1.1c-0.2-.6.4-2.1-0.4-2.2h-0.7c-0.4.1-1-.1-1.1,0.4s-0.2,1.3-.4,1.8-0.1,3.5-.4,5.1v1.1c-0.8,0-.2,1.6-0.4,2.2v2.2c-0.8-.1-0.2,1.3-0.4,1.8v3.7h-0.7c0,0.7-1,2.1,0,2.6v1.1c-0.6.3-.8,1.1-0.7,2.2s-0.1.4-.4,0.4-1.1,1.6-.4,1.8H368a3.5,3.5,0,0,0-1.1,2.9c-0.9,0-.5,1.4-1.5,1.5s-1.4.1-1.1,1.1v0.4c-1.2-.5-0.3,1.2-1.5.7h-0.4v-0.4c-1.6.1-2.8,0.6-4.8,0.4h-4c-0.2-.8-1.8-0.1-2.6-0.4h-7.7c-5.9-.9-13.3-0.1-19.8-0.4H323a2.4,2.4,0,0,1-.4-0.7c-0.3-.8-1.3-0.9-1.8-1.5h-0.4C319.7,268.3,318.9,266.4,317.8,267.2Z"/><path class="b" d="M399.4,264.6c0.3,0.7.4-.2,0.4-0.7h4.8c1,0.8,3.5.1,5.1,0.4v22.7c0,0.9,1.2.7,2.2,0.7h36.6a1.7,1.7,0,0,0-.4,1.1,0.6,0.6,0,0,1-.4.7,10.1,10.1,0,0,0-2.6,2.6h-0.7c-1,.7-2.5,1-3.3,1.8v0.4a6,6,0,0,1-2.6.7h-1.1a3.3,3.3,0,0,0-2.6.7h-0.7c-0.5.2-1.9-.4-1.8,0.4H432c-0.5.2-1.9-.4-1.8,0.4h-0.4c-0.6.2-2.1-.4-2.2,0.4h-1.1c-1,.2-2.9-0.5-3.3.4h-0.7c-1.8.2-4.6-.5-5.9,0.4h-2.2c-4.5.2-10-.5-13.9,0.4h-3.3c-1.7.2-4.4-.5-5.5,0.4H391c-0.8.2-2.4-.5-2.6,0.4h-0.4c-0.6,0-1.4-.2-1.5.4h-0.7c-0.6,0-1.4-.2-1.5.4h-1.1c-0.5.2-1.9-.4-1.8,0.4h-0.7c-0.5.2-1.9-.4-1.8,0.4h-0.7c-0.6.2-2.1-.4-2.2,0.4h-0.7c-0.6.2-2.1-.4-2.2,0.4h-0.4c-0.9.2-2.7-.5-2.9,0.4h-0.4c-0.6.2-2.1-.4-2.2,0.4h-0.7c-0.6.2-2.1-.4-2.2,0.4h-0.7c-0.6.2-2.1-.4-2.2,0.4h-0.7c-0.5.2-1.9-.4-1.8,0.4h-0.7c-0.6.2-2.1-.4-2.2,0.4h-0.4c-0.6.2-2.1-.4-2.2,0.4H353c-0.5.2-1.9-.4-1.8,0.4h-0.7c-0.5.2-1.9-.4-1.8,0.4h-0.4c-0.6,0-1.4-.2-1.5.4H346c-0.6,0-1.4-.2-1.5.4h-0.4c-0.5.2-1.9-.4-1.8,0.4H342c-0.6,0-1.4-.2-1.5.4a2.4,2.4,0,0,1-1.8.4c-0.6,0-1.4-.2-1.5.4s-1,.2-1.1.7-1.4-.2-1.5.4h-2.2c-1.1-.1-1.9.1-2.2,0.7h-0.4a3,3,0,0,0-2.2.7c-0.5.5-1.8,0.2-1.8,1.1s-1.8.7-2.9,0.7a7.8,7.8,0,0,0-4.8,1.8c-0.1.4-.7,0.3-1.1,0.4a2,2,0,0,0-1.8,1.1,1.7,1.7,0,0,1-1.1.4,2,2,0,0,0-1.8,1.1H312c-0.9.6-2.2,0.8-2.6,1.8s-0.4.3-.7,0.4-0.8.4-1.5,0.4-2.2.8-2.6,1.8-0.8.4-1.5,0.4-3.4,1.2-4.4,2.6h-0.4c-3.7,2-7.8,3.7-11.3,5.9-0.1.4-.7,0.3-1.1,0.4s-2,.6-1.1.7v0.4h-1.5c-0.9.3-2.1,0.4-2.6,1.1h-0.4c-0.9.3-2.1,0.4-2.6,1.1v0.4c-1.2-.2-1.3.7-2.6,0.4s-2.8.4-3.7,1.1-2.6.3-3.3,1.1h-1.8c-0.6,0-1.4-.2-1.5.4h-0.7c-0.6,0-1.4-.2-1.5.4h-1.1c-0.9.2-2.7-.5-2.9,0.4H204.4c-0.9.2-2.7-.5-2.9,0.4h-1.1c-0.1-.4-0.7-0.3-1.1-0.4-3.5-.9-8.7-0.1-12.8-0.4h-2.6a16.4,16.4,0,0,0-7.7,0h-1.1c0-.4-0.4-0.3-0.7-0.4s-4-.1-5.9-0.4h-1.5c-1.1-.8-3.8-0.1-5.5-0.4h-0.7c-0.5-.8-2.5-0.1-3.7-0.4h-1.5c-0.6-.8-2.8-0.1-4-0.4h-0.4c-0.4-.8-2.3-0.1-3.3-0.4h-0.4c-0.4-.8-2.3-0.1-3.3-0.4h-1.1c-0.2-.8-1.8-0.1-2.6-0.4H140c-0.2-.8-1.8-0.1-2.6-0.4h-0.7c0-.8-1.6-0.2-2.2-0.4h-0.7c0-.8-1.6-0.2-2.2-0.4h-0.4c0-.8-1.6-0.2-2.2-0.4h-0.4c0.1-.8-1.3-0.2-1.8-0.4h-0.7c0.1-.8-1.3-0.2-1.8-0.4h-1.8c0.1-.3-0.1-0.3-0.4-0.4s-0.9-.3-1.5-0.4h-1.8c-0.1-.5-0.9-0.3-1.5-0.4s-0.1-.3-0.4-0.4-0.9-.3-1.5-0.4h-1.5c-0.1-.5-0.9-0.3-1.5-0.4h-0.7c0-.4-0.4-0.3-0.7-0.4s-0.1-.3-0.4-0.4a4.8,4.8,0,0,0-2.6-.7,4.5,4.5,0,0,1-3.3-.7,3,3,0,0,0-2.2-.7h-1.1c-0.1-.5-0.9-0.3-1.5-0.4s-0.1-.3-0.4-0.4a15.7,15.7,0,0,0-4.8-1.5H93.9c-0.1-.5-0.9-0.3-1.5-0.4H91.7a1.8,1.8,0,0,0-1.8-.7c0.1-.3-0.1-0.3-0.4-0.4a3,3,0,0,0-2.2-.7H87a3,3,0,0,0-2.2-.7H84.4a3,3,0,0,0-2.2-.7c-1.2.2-1.3-.7-2.6-0.4H78.9a1.1,1.1,0,0,0-.7-0.7,4.8,4.8,0,0,0-2.6-.7H73.4a15.3,15.3,0,0,0-3.3-1.1c0.1-.3-0.1-0.3-0.4-0.4s-0.9-.3-1.5-0.4H66.9c-0.1-.5-0.9-0.3-1.5-0.4H64.7c-0.1-.4-0.7-0.3-1.1-0.4s-0.1-.3-0.4-0.4-0.9-.3-1.5-0.4H61.4c0.1-.8-1.3-0.2-1.8-0.4H59.2c0.1-.8-1.3-0.2-1.8-0.4H56.2c0.1-.8-1.3-0.2-1.8-0.4H53.7c-4.6-.9-10.9-0.1-16.1-0.4H34.7c-1.1-.8-3.8-0.1-5.5-0.4H28.4c-0.3-.8-2.1-0.1-2.9-0.4H24.8c0-.8-1.6-0.2-2.2-0.4H22.2c0.1-.8-1.3-0.2-1.8-0.4H20c-0.1-.5-0.9-0.3-1.5-0.4H16.4c-0.1-.5-0.9-0.3-1.5-0.4s-0.1-.3-0.4-0.4-0.1-.3-0.4-0.4-1.2-.5-1.8-0.7H12a1.6,1.6,0,0,0-1.5-.7c-1.6.3-1.6-1.1-2.9-1.1S7,307.1,6.5,307a7.4,7.4,0,0,0-2.2-2.2c-0.3.1-.3-0.1-0.4-0.4v-0.4c-1.2-.3-1.1-1.8-1.8-2.6s-0.1-.3-0.4-0.4v-0.4c0.4,0,.3-0.4.4-0.7s0.2-1.2.7-1.5v-0.4H3.2c0.7-1.2,2.1-1.8,2.9-2.9H6.9c0.3-.8,1.7-0.5,1.8-1.5s0.3-.1.4-0.4,1.1-.1,1.1-0.7A1.8,1.8,0,0,0,12,292a2.4,2.4,0,0,0,1.5-.4h1.1a8,8,0,0,0,2.9-1.1c0.3,0.1.3-.1,0.4-0.4a18.2,18.2,0,0,0,3.7-1.1,0.6,0.6,0,0,0,.7-0.4,29.3,29.3,0,0,0,6.2-1.5c0.4,0,.3-0.4.4-0.7h0.4c-0.3,1,.5.9,0.4,1.8s0.2,1.6.7,2.2,1.3,3.9,2.6,3.3a0.6,0.6,0,0,1,.4.7,1.5,1.5,0,0,0,1.1,1.5c0.5,0.1.6,0.6,1.1,0.7a1.4,1.4,0,0,0,1.5,1.5c0.4,0.9,2,.7,3.3.7s1.6,0.2,2.2.4H55.1c1.2,0,2.6.1,2.9-.7s0.3-.1.4-0.4h0.7c1.1,0.3,1.3-.4,2.2-0.4s2.2,0.2,2.2-.7v-0.4c0.8,0.1,1.4-.1,1.5-0.7a1,1,0,0,0,1.1-.7c1.5-.1,2-1.1,2.9-1.8s0.6-.3,1.1-0.4,2.4-1,2.6-2.6a0.6,0.6,0,0,1,.4-0.7,2.9,2.9,0,0,0,1.5-1.8,2,2,0,0,0,1.1-1.8v-0.4a1.6,1.6,0,0,0,.7-1.5c1.1-.3,1.2-1.7,1.5-2.9s4.1,0.3,4.4,0,0.4-.2.4-0.7h0.7c0,0.6,2.5.6,2.6,0H87c0.1,0.5.9,0.3,1.5,0.4h0.7c0.5,0.8,2.5.1,3.7,0.4h1.8c0,0.8,1.6.2,2.2,0.4s2.1,0.4,2.2-.4h0.7c0,0.8,1.6.2,2.2,0.4h1.5c1,0.8,3.5.1,5.1,0.4h3.7c0.6,0.6,3.8.6,4.4,0h2.9c0.2,0.8,1.8.1,2.6,0.4h0.4c0,0.8,1.6.2,2.2,0.4h2.9c0.6,0.8,2.8.1,4,.4h0.7c0.5,0.8,2.5.1,3.7,0.4h2.2c1,0.8,3.5.1,5.1,0.4h0.7a211.4,211.4,0,0,0,27.8,0c0.5,0,1,.1,1.1-0.4h1.1c0.2,0.8,1.8.1,2.6,0.4v1.1c0.2,0.8-.5,2.4.4,2.6a0.6,0.6,0,0,0,.4.7v0.4c0.2,0.5-.4,1.9.4,1.8s0.1,0.3.4,0.4v1.5c-0.5.8,0.4,3.2,1.5,3.7a1.7,1.7,0,0,1,.4,1.1A1.6,1.6,0,0,0,181,299c0.3-.1.3,0.1,0.4,0.4a5.4,5.4,0,0,0,2.2,3.3c0.5,0.1.6,0.6,1.1,0.7s1.3,1.1,2.2,1.5,0.1,0.3.4,0.4,2.5,0.1,3.7.4h3.3c0.3,0.8,2.1.1,2.9,0.4h7c0.9-.2,2.7.5,2.9-0.4s1.8,0.1,1.8-.7h0.4c1.8,0.1,3.2-.2,4-1.1s0.1-.3.4-0.4,1.4-.1,1.5-0.7h0.4a1.6,1.6,0,0,0,1.8-1.1,6.2,6.2,0,0,1,1.5-1.1,2.3,2.3,0,0,1,.7-0.4c2.1-1.2,3.4-3.1,4.8-5.1,1.8,0.8,5.6-5,8-8a33.2,33.2,0,0,1,7.7-7.3c0.7-.2.9-0.8,1.8-0.7s2-.2,2.2-1.1h0.7a12.4,12.4,0,0,0,4-1.1h0.4c0.6,0,1.4.2,1.5-.4h0.4a5.7,5.7,0,0,0,3.7-.4h0.4c0.9-.2,2.7.5,2.9-0.4h0.7c0.5-.2,1.9.4,1.8-0.4h0.4c0.9-.2,2.7.5,2.9-0.4h0.4c0.8-.2,2.4.5,2.6-0.4h0.7c0.6-.2,2.1.4,2.2-0.4h0.7c0.6-.2,2.1.4,2.2-0.4h0.4a14.4,14.4,0,0,0,5.1-.7h0.4c4.6-.7,10-0.5,14.6-1.1h2.9c8-.3,14.4.7,21.6,0v-0.7h0.4c0.1,0.5.6,0.6,0.7,1.1s1.1,1.3,1.5,1.8,2.3,1.1,4,1.1H327c0.3,0.8,2.1.1,2.9,0.4h1.5c0.1,0.5.9,0.3,1.5,0.4h4.8c0.5,0.8,2.5.1,3.7,0.4h1.8c-0.1.8,1.3,0.2,1.8,0.4h6.2c0.1,0.5.9,0.3,1.5,0.4h7c0.8-.2,2.4.5,2.6-0.4h0.7c1.6,0,2.8-.4,3.3-1.5s0.1-.3.4-0.4,1.4-1.5,2.6-1.8,1.7,0.6,1.5,0a3.1,3.1,0,0,0,2.2.4h1.1c0.3,0.8,2.1.1,2.9,0.4H380c2.2,0.9,6,.1,8.8.4h2.6c0.8,0.1,1.4-.1,1.5-0.7a0.9,0.9,0,0,0,1.1-1.1h0.4a7.3,7.3,0,0,0,4-4.8c0.6-.3.8-1.1,0.7-2.2A0.6,0.6,0,0,1,399.4,264.6Z"/><path class="a" d="M34.3,284a1.5,1.5,0,0,0-1.1-1.5c0.1-.7-0.1-1.1-0.7-1.1s-0.1-.3-0.4-0.4a0.6,0.6,0,0,0-.4-0.7,1.5,1.5,0,0,0-1.1-1.5v-1.1c4.1-.2,9.3.5,12.8-0.4,0.5,0.6,1.9.3,2.9,0.4h0.7c0.1,0.5.9,0.3,1.5,0.4h2.6c0.2,0.8,1.8.1,2.6,0.4h1.1c0.1,0.5.9,0.3,1.5,0.4h2.9c0.2,0.8,1.8.1,2.6,0.4h1.8c0.1,0.5.9,0.3,1.5,0.4H68c0.2,0.8,1.8.1,2.6,0.4h3.3a1.6,1.6,0,0,0,1.5.7c-0.2,1.1-1.9,1.9-1.1,2.9a1.1,1.1,0,0,1-.7.7c-0.8.1-.7,1-1.1,1.5H72c-1.8,1.5-3.4,3.2-5.1,4.8v0.4c-0.5-.6-1.5,0-1.8.7a1.1,1.1,0,0,0-.7.7,13.6,13.6,0,0,1-2.6.7,1.6,1.6,0,0,0-1.5.7H59.5c0.3-.6-1.7-0.6-1.5,0H57.7c-0.5.2-1.9-.4-1.8,0.4h-7c0-.6-2.5-0.6-2.6,0s-0.3.1-.4,0.4H45.6v-0.4C40.4,292.2,37.9,287.6,34.3,284Z"/><path class="b" d="M99.8,180.4c1.2,1.3,1.6,3.3,2.9,4.4v0.7a15.3,15.3,0,0,0,1.5,4,2.4,2.4,0,0,1,.4,1.8c0,0.6-.2,1.4.4,1.5v0.4c0,0.6-.2,1.4.4,1.5v0.4c0.2,0.6-.4,2.1.4,2.2v0.4c0.2,0.6-.4,2.2.4,2.2v1.1c0.2,1.2-.5,3.4.4,4v10.2H106a35.3,35.3,0,0,1-2.9,2.9c-0.1.4-.6,0.4-1.1,0.4a1.6,1.6,0,0,0-1.5.7c-0.7.3-.9,1-2.2,0.7H81.5c-1.1-.8-3.8-0.1-5.5-0.4H68.3c-1.8.2-4.6-.5-5.9,0.4H62.1c-0.1-.5-0.9-0.3-1.5-0.4H53a8.5,8.5,0,0,0-5.5,0H46.7c0-.5-0.6-0.3-0.7-0.7a2.9,2.9,0,0,0-1.8-1.5c-0.6.1-.6-0.3-1.1-0.4s-1.5-.9-2.2-1.5H39.8v-5.5c0.8-.5.1-2.5,0.4-3.7v-4c-0.2-.6.4-2.1-0.4-2.2v-1.8c0.8-.4.1-2.3,0.4-3.3v-0.4c0.8-.5.1-2.5,0.4-3.7v-8.8a72.8,72.8,0,0,1,6.6-4v-0.4c0.3-.7,2,0.1,2.2-0.7s1.3,0.1,1.5-.4h2.6c0.5-.2,1.9.4,1.8-0.4h0.7c0.9-.2,2.7.5,2.9-0.4h19c1.6,0.8,4.8.1,7,.4h1.1c-0.3.6,1.7,0.6,1.5,0h0.4c3.4,0.7,8.4-.1,10.2,2.2h0.4c-0.1,1,1,.9,1.5,1.5v0.4Z"/><path class="a" d="M228.2,230.6c0,0.5.5,0.5,0.4,1.1,2.1,5.8,4.5,11.3,4.8,19v3.7c-0.5.1-.3,0.9-0.4,1.5v2.9c-0.7.4-.8,1.4-0.7,2.6v0.4c-0.6.3-.8,1.1-0.7,2.2v0.4a1.8,1.8,0,0,0-.7,1.8c-0.7.3,0.1,2-.7,2.2h-0.4c-0.4.1-.2,0.7-0.7,0.7a0.6,0.6,0,0,0,.4.7v0.7c0.1,0.3,0,.7.4,0.7s0.6,1.1.7,1.8h0.4v0.7c0,0.2-.1.4-0.4,0.4v0.7a2.4,2.4,0,0,0-1.8.4V277c-0.6.3-.8,1.1-0.7,2.2v0.4h-0.4c0-1.1-1.4,1.2-.4,1.1v0.7c-0.6.3-.8,1.1-0.7,2.2H226c-1.4.4-2.9,3.7-4.4,5.1v0.4a50.4,50.4,0,0,1-17.6,11.7c-0.3-.1-0.3.1-0.4,0.4h-0.4c0.1-.3-0.1-0.3-0.4-0.4s-1.7-.6-1.5,0c-3.3.2-7.6-.5-10.2,0.4h-0.4v-0.4c-6.2-3.3-10.5-8.5-10.6-17.9H181a14.9,14.9,0,0,0,7.3,0h1.1c0.7,0.2,1.9-1,1.1-1.1a1369,1369,0,0,1,.7-1.5h0.4c0,1.1,1.4-1.2.4-1.1v-0.4c0.8-.1.8-0.9,0.7-1.8s0.8-1.4.7-2.6v-0.4h0.4c0.5-.1.3-0.9,0.4-1.5v-0.7c0.6,0.3.6-1.7,0-1.5v-1.1c0.4,0,.3-0.4.4-0.7s0.3-.4.4-0.7h0.4c0,0.5-.1,1,0.4,1.1v0.7c0.2,0.5-.4,1.9.4,1.8s-0.1,1,.4,1.1V273c-0.1,1.1.1,1.9,0.7,2.2v0.4a1.8,1.8,0,0,0,.7,1.8,1.2,1.2,0,0,0,.4,1.8,25.5,25.5,0,0,1,1.8,2.9c0.3,2.4,2.9,4.4,4,4.8h0.4l1.5,0.7c0.1,0.4.7,0.2,0.7,0.7s1.4,0.8,2.6.7,1.4,0.2,1.5-.4,1,0.1,1.1-.4a5.4,5.4,0,0,0,4.4-2.6c0.4,0,.9-0.1.7-0.7s0.7-.5,1.1-0.7,1.8-1.5,1.1-2.2h0.4c0-.5.5-0.5,0.4-1.1v-0.4c0.6-.1.8-0.6,0.7-1.5s1.2-1.9,1.5-3.3-0.1-1,.4-1.1,0.3-.9.4-1.5V273c0.7-.4.8-1.4,0.7-2.6v-0.7h0.4c0.4,1.2.4-1,.4-1.5v-1.5c0.8-.2.1-1.8,0.4-2.6a23.1,23.1,0,0,0,0-9.1c-0.2-.6.4-2.1-0.4-2.2v-1.8c0-.6.2-1.4-0.4-1.5h-0.4v-0.7a3.3,3.3,0,0,0-.7-2.6v-1.8a1.8,1.8,0,0,0-.7-1.8,1.1,1.1,0,0,0-.7-0.7v-0.4c0.1-.8-0.1-1.4-0.7-1.5v-0.4c0.3-1-.7-0.7-0.7-1.5s-0.3-1.3-.7-1.5a6.2,6.2,0,0,0-1.1-1.5c-0.2,0-.4-0.1-0.4-0.4s-1.5-1.9-2.2-2.6h-0.7c-0.3-.1-0.7,0-0.7-0.4s-1.9-1.3-3.3-1.5-2.4-.5-2.6.4a1.8,1.8,0,0,0-1.8.7c-2.6.6-3.9,2.4-5.1,4.4,0,0.2-.1.4-0.4,0.4a2.4,2.4,0,0,1-.7.4v-3.7c0.8,0,.2-1.6.4-2.2v-0.7c2-7.6,5.9-18.6,13.9-17.2S223.6,224.4,228.2,230.6Z"/><path class="c" d="M1192.9,121.3a8.3,8.3,0,0,0-3.9-.6c-2.6.2-3.9,2.3-5.1,4.3a113.6,113.6,0,0,1-16.3,20.5c-3.4,3.4-7.1,6.4-11.8,7.8s-6.8-.4-6.7-5.2a2.4,2.4,0,0,1,.1-0.5c1.2-4.8,2-9.7,3.5-14.4,8.8-27.3,17.7-54.5,26.5-81.8a45.6,45.6,0,0,0,1.6-7.7,3.8,3.8,0,0,0-2.7-4.2,9.7,9.7,0,0,0-3.5-.8c-8.1,0-16.2-.1-24.3.1-5,.1-6.9,2.6-6.7,7.6a14.4,14.4,0,0,1-.6,4.7q-11.2,35.7-22.6,71.3c-1.1,3.6-2,7.3-4.5,10.3s-3.8,5-5.8,7.4c-3.8,4.5-7.8,8.8-13.1,11.7a12.9,12.9,0,0,1-7.4,1.9c-2.5-.2-3.9-1.6-3.8-4a22.6,22.6,0,0,1,1-5.6c2.7-8.9,5.7-17.8,8.3-26.8a34.1,34.1,0,0,0,1.2-9.9c-0.1-6.3-4-9.9-10.2-10.3-8-.5-15.1,2.1-21.6,6.4-8.6,5.6-15.4,13.2-21.7,21.2l-1.6,2.1a2.2,2.2,0,0,1,.1-1.3L1051.5,94c4.9-15.2,9.9-30.4,14.7-45.6,2.2-6.8-.1-9.7-7.2-9.7h-22.8c-4.1,0-5.1.9-5.8,4.9-0.4,2.4-.4,4.9-1.1,7.2q-11.1,35.1-22.4,70.1c-1.2,3.8-1.9,7.7-4.3,11a85.5,85.5,0,0,1-13.3,14.7c-10.3,8.9-22.2,14.1-36,13.8a18,18,0,0,1-13.1-5.4l9.2-3c11-3.8,21.7-8,31.3-14.7a35.8,35.8,0,0,0,11-11.7c4.3-7.6,3-15.1-3.8-20.7a33,33,0,0,0-6.3-4c-8.9-4.4-18.3-5.1-27.9-3.9a69.1,69.1,0,0,0-30.3,11.8c-9.5,6.4-17.4,14.3-22.3,24.8-1,2.2-1.5,4.8-2.9,6.7-4,5.4-8.9,9.6-15.7,11s-12.7-2.3-13.4-9.9a46.5,46.5,0,0,1,2-18.2c5-16.2,10.4-32.4,15.5-48.6a180.7,180.7,0,0,0,5.4-20.1c1.7-9-2.4-15.4-11.2-18s-19.7-2.9-29.2,1.5S833.6,49.3,826,56.7c-12.4,12-23,25.5-33,39.4l-1.2,1.6c1.7-6.4,3.8-12.6,5.8-18.8,3.5-10.8,7.1-21.6,10.5-32.5,1.6-5.3-.5-8.4-6-9.2H768.8a4.2,4.2,0,0,0-4,3,19.3,19.3,0,0,0-.8,3.7c-0.4,2.6-.5,5.4-1.3,7.9q-11.7,37-23.6,73.9l-16.2,50.5c-0.7,2.2,0,4.1,2.2,4.9a14.6,14.6,0,0,0,4.8.9h25.6c6.4-.1,9.9-2.8,12-8.9s4.2-13,6.8-19.4c6.2-15.1,14.8-29,24.4-42.2S817.6,86,828.4,74.2a66.3,66.3,0,0,1,8.5-7.5c1.7-1.3,3-.5,2.8,1.7a30.2,30.2,0,0,1-1.1,6.5C836.2,83,833.5,91,831,99.2c-3.8,12.6-7.8,25.1-11.3,37.7-2.2,8-3.4,16.2-1.7,24.5,2.3,11.1,8.3,19.2,19.6,22.3s19.9,1.2,29.5-2.5c11.8-4.5,21.2-12.3,29.8-21.3l0.9-.8c3.9,12.5,12.6,19.5,25,22.2a61.1,61.1,0,0,0,21.6.3c15.6-2.2,29.4-8.4,41.9-17.9,3-2.3,5.9-4.8,9-7.3-0.2.8-.3,1.4-0.5,1.9l-5.5,16.9c-1.5,4.7-.4,6.3,4.5,6.8h22.1c5.4-.1,8.2-2.4,9.8-7.4s2.8-8.1,4.5-12c3.8-9,8.6-17.5,16-24.2a7.9,7.9,0,0,1,2.7-1.8c0.9-.3,2.4-0.4,3,0.1s0.6,2,.3,3c-1.1,3.8-2.3,7.6-3.5,11.4a44.1,44.1,0,0,0-2.4,16.2c0.5,8.8,5.5,14.2,14.2,15.2a39.2,39.2,0,0,0,14.2-1c10.9-2.7,20-8.7,28.4-16l5.7-5.2c0,2.6-.1,4.9,0,7.2,0.4,8.5,5.5,13.9,13.9,14.9a42.7,42.7,0,0,0,26.5-5.5c20.1-11.3,35.1-27.3,44-48.8l1.2-2.9C1195,123.6,1194.6,122,1192.9,121.3ZM936,131.5a42.7,42.7,0,0,1,12.7-16.8c3.2-2.5,6.4-1.1,7.3,2.8s-0.3,6.9-1.7,10.1a36.6,36.6,0,0,1-11.6,14.4,10.8,10.8,0,0,1-7.4,2.6C934.5,140.2,934.2,135.7,936,131.5Z"/><path class="c" d="M1192.9,121.3a8.3,8.3,0,0,0-3.9-.6c-2.6.2-3.9,2.3-5.1,4.3a113.6,113.6,0,0,1-16.3,20.5c-3.4,3.4-7.1,6.4-11.8,7.8s-6.8-.4-6.7-5.2a2.4,2.4,0,0,1,.1-0.5c1.2-4.8,2-9.7,3.5-14.4,8.8-27.3,17.7-54.5,26.5-81.8a45.6,45.6,0,0,0,1.6-7.7,3.8,3.8,0,0,0-2.7-4.2,9.7,9.7,0,0,0-3.5-.8c-8.1,0-16.2-.1-24.3.1-5,.1-6.9,2.6-6.7,7.6a14.4,14.4,0,0,1-.6,4.7q-11.2,35.7-22.6,71.3c-1.1,3.6-2,7.3-4.5,10.3s-3.8,5-5.8,7.4c-3.8,4.5-7.8,8.8-13.1,11.7a12.9,12.9,0,0,1-7.4,1.9c-2.5-.2-3.9-1.6-3.8-4a22.6,22.6,0,0,1,1-5.6c2.7-8.9,5.7-17.8,8.3-26.8a34.1,34.1,0,0,0,1.2-9.9c-0.1-6.3-4-9.9-10.2-10.3-8-.5-15.1,2.1-21.6,6.4-8.6,5.6-15.4,13.2-21.7,21.2l-1.6,2.1a2.2,2.2,0,0,1,.1-1.3L1051.5,94c4.9-15.2,9.9-30.4,14.7-45.6,2.2-6.8-.1-9.7-7.2-9.7h-22.8c-4.1,0-5.1.9-5.8,4.9-0.4,2.4-.4,4.9-1.1,7.2q-11.1,35.1-22.4,70.1c-1.2,3.8-1.9,7.7-4.3,11a85.5,85.5,0,0,1-13.3,14.7c-10.3,8.9-22.2,14.1-36,13.8a18,18,0,0,1-13.1-5.4l9.2-3c11-3.8,21.7-8,31.3-14.7a35.8,35.8,0,0,0,11-11.7c4.3-7.6,3-15.1-3.8-20.7a33,33,0,0,0-6.3-4c-8.9-4.4-18.3-5.1-27.9-3.9a69.1,69.1,0,0,0-30.3,11.8c-9.5,6.4-17.4,14.3-22.3,24.8-1,2.2-1.5,4.8-2.9,6.7-4,5.4-8.9,9.6-15.7,11s-12.7-2.3-13.4-9.9a46.5,46.5,0,0,1,2-18.2c5-16.2,10.4-32.4,15.5-48.6a180.7,180.7,0,0,0,5.4-20.1c1.7-9-2.4-15.4-11.2-18s-19.7-2.9-29.2,1.5S833.6,49.3,826,56.7c-12.4,12-23,25.5-33,39.4l-1.2,1.6c1.7-6.4,3.8-12.6,5.8-18.8,3.5-10.8,7.1-21.6,10.5-32.5,1.6-5.3-.5-8.4-6-9.2H768.8a4.2,4.2,0,0,0-4,3,19.3,19.3,0,0,0-.8,3.7c-0.4,2.6-.5,5.4-1.3,7.9q-11.7,37-23.6,73.9l-16.2,50.5c-0.7,2.2,0,4.1,2.2,4.9a14.6,14.6,0,0,0,4.8.9h25.6c6.4-.1,9.9-2.8,12-8.9s4.2-13,6.8-19.4c6.2-15.1,14.8-29,24.4-42.2S817.6,86,828.4,74.2a66.3,66.3,0,0,1,8.5-7.5c1.7-1.3,3-.5,2.8,1.7a30.2,30.2,0,0,1-1.1,6.5C836.2,83,833.5,91,831,99.2c-3.8,12.6-7.8,25.1-11.3,37.7-2.2,8-3.4,16.2-1.7,24.5,2.3,11.1,8.3,19.2,19.6,22.3s19.9,1.2,29.5-2.5c11.8-4.5,21.2-12.3,29.8-21.3l0.9-.8c3.9,12.5,12.6,19.5,25,22.2a61.1,61.1,0,0,0,21.6.3c15.6-2.2,29.4-8.4,41.9-17.9,3-2.3,5.9-4.8,9-7.3-0.2.8-.3,1.4-0.5,1.9l-5.5,16.9c-1.5,4.7-.4,6.3,4.5,6.8h22.1c5.4-.1,8.2-2.4,9.8-7.4s2.8-8.1,4.5-12c3.8-9,8.6-17.5,16-24.2a7.9,7.9,0,0,1,2.7-1.8c0.9-.3,2.4-0.4,3,0.1s0.6,2,.3,3c-1.1,3.8-2.3,7.6-3.5,11.4a44.1,44.1,0,0,0-2.4,16.2c0.5,8.8,5.5,14.2,14.2,15.2a39.2,39.2,0,0,0,14.2-1c10.9-2.7,20-8.7,28.4-16l5.7-5.2c0,2.6-.1,4.9,0,7.2,0.4,8.5,5.5,13.9,13.9,14.9a42.7,42.7,0,0,0,26.5-5.5c20.1-11.3,35.1-27.3,44-48.8l1.2-2.9C1195,123.6,1194.6,122,1192.9,121.3ZM936,131.5a42.7,42.7,0,0,1,12.7-16.8c3.2-2.5,6.4-1.1,7.3,2.8s-0.3,6.9-1.7,10.1a36.6,36.6,0,0,1-11.6,14.4,10.8,10.8,0,0,1-7.4,2.6C934.5,140.2,934.2,135.7,936,131.5Z"/><path class="d" d="M396.9,52.3l47.3-2.6a5.2,5.2,0,0,0,3.2-1,5.8,5.8,0,0,0,1.7-3.7c-0.1-1.6-1.8-1.1-3-1.2H396.9c0-2.9-1.3-5-4-5.9a15.2,15.2,0,0,0-4.5-.9l-16.2-.2H358.1c-3.3,0-4.9,1.4-5.7,4.6-0.2.8-.3,1.5-0.5,2.3H322.1l0.8,13,26.7-1.6-21.6,67.4-0.8,2,3.7,57.4h12.1c6.6,0,10.4-2.8,12.4-9.1,3.6-11.2,7.1-22.5,10.7-33.7Q379.9,97,393.6,54.8A3,3,0,0,1,396.9,52.3Z"/><path class="e" d="M301.3,43.8H285.4a7.6,7.6,0,0,0-7.2,3.9c-1.5,2.5-3.2,4.9-4.7,7.5-0.5,1-1.1,2.7-.6,3.3a4.5,4.5,0,0,0,3.4,1.1l24.2-1.4h1.4l-0.4-14.5h-0.2Z"/><path class="f" d="M446.1,43.7H396.9c0-2.9-1.3-5-4-5.9a15.2,15.2,0,0,0-4.5-.9l-16.2-.2H358.1c-3.3,0-4.9,1.4-5.7,4.6-0.2.8-.3,1.5-0.5,2.3H285.4a7.6,7.6,0,0,0-7.2,3.9c-1.5,2.5-3.2,4.9-4.7,7.5-0.5,1-1.1,2.7-.6,3.3a4.5,4.5,0,0,0,3.4,1.1l24.2-1.4h1.4l20.1-1.4h0.8l26.7-1.6-21.6,67.4-0.8,2-3.1,7.7a13.4,13.4,0,0,1-.7,4.5c-4,12.5-8,25-12,37.5-1.5,4.6.1,7,4.8,7.4a84.9,84.9,0,0,0,8.6.2h18.2c6.6,0,10.4-2.8,12.4-9.1,3.6-11.2,7.1-22.5,10.7-33.7Q379.9,97,393.6,54.8a3,3,0,0,1,3.3-2.5l47.3-2.6a5.2,5.2,0,0,0,3.2-1,5.8,5.8,0,0,0,1.7-3.7C449.1,43.4,447.3,43.8,446.1,43.7Z"/><path class="g" d="M685.4,120c-3.4-.4-5.8,1-7.8,3.7-4.6,6.3-9.2,12.7-14.2,18.7a26.9,26.9,0,0,1-7.6,6c-3,1.7-5.2.1-4.9-3.3a70.4,70.4,0,0,1,1.6-10.3c1.8-7.9,4.3-15.7,4.8-23.9,0.6-10.2-3.8-15.6-14.7-14.3a39.3,39.3,0,0,0-18.4,7.4c-8.4,5.9-15.1,13.6-21.2,21.8l-1.2,1.4a5.8,5.8,0,0,1,.2-2.3,54.9,54.9,0,0,0,2-16.3c-0.4-8.2-5.2-12.5-13.4-12.1s-13.5,3.6-19.3,7.8c-9,6.4-16.3,14.6-23.2,23.2l-1.2,1.4c2.1-7.3,4.5-14.4,6.9-21.6a30.3,30.3,0,0,0,1.1-4.6c0.5-2.8-.7-4.7-3.4-5.4a22.3,22.3,0,0,0-5.4-.7H524.3c-3.7,0-5.4,1.2-5.5,4.8-0.2,5.3-2.1,10.2-3.6,15.1a74.1,74.1,0,0,1-3.5,10,65.8,65.8,0,0,1-5.7,9.2c-2.7,3.8-6,6.8-10.6,8a12.5,12.5,0,0,1-6.5.4c0.8-3.3,1.8-6.4,2.4-9.5,2-11.4-1-21.2-10.1-28.8-7.4-6.2-16.2-8.7-25.6-9.1-16.5-.7-31.4,4.3-44.8,13.6-9.3,6.5-17,14.4-21.5,25-2.9,6.8-4.6,13.8-3.1,21.3,2.1,10.4,8.6,17.2,17.9,21.6s20.9,4.9,31.7,3.5c14.4-1.9,26.8-8.1,37.6-17.7a6.2,6.2,0,0,1,3.7-1.7,50,50,0,0,0,6.3-1.2,55.5,55.5,0,0,0,20.6-9.5l-0.8,2.8-7.2,22.6c-1,3.2,0,4.9,3.3,5.6l1.3,0.2c7.8,0,15.6.1,23.3,0,4.5-.1,7.1-2.3,8.4-6.6,1.8-5.8,3.6-11.7,5.5-17.5a12.5,12.5,0,0,1,1.9-3.9c4.7-5.9,9.7-11.7,15.6-16.6a12,12,0,0,1,3.7-2.3,4.5,4.5,0,0,1,3.4.4c0.5,0.4.6,2,.3,2.9-0.8,2.9-2,5.8-2.9,8.7l-9.3,28.8c-1.2,3.8.2,6,4.1,6.1,8.1,0.2,16.2.2,24.3,0,4.5-.1,6.5-2.1,7.9-6.4s2.1-6.9,3.2-10.3,1.8-7,3.5-10a74,74,0,0,1,13.1-17.1,15.9,15.9,0,0,1,3.6-2.5c1.6-.8,2.8,0,2.9,1.7a6.3,6.3,0,0,1-.1,1.6c-0.9,5.2-1.8,10.3-2.7,15.5s-1.5,10.7-.6,16.1c1.2,7.2,5.6,11.2,12.8,11.5s15-2.6,21.6-6.7c12.2-7.6,22.2-17.7,31.2-28.8,5.5-6.9,10.1-14.3,12.8-22.8C688.9,121.8,688,120.4,685.4,120Zm-228.3-.6c-5.9,3.8-10.5,8.7-12.8,15.6s-1.4,16.6,5.5,21.8l0.4,0.5a22.6,22.6,0,0,1-15,2.8c-9.3-1.5-15-9.5-14.2-19.6,0.6-7.4,4.2-13.2,9.6-18.2a27.4,27.4,0,0,1,12.2-6.8c5.7-1.4,11.2-1.2,16.4,2.3Z"/><path class="g" d="M685.4,120c-3.4-.4-5.8,1-7.8,3.7-4.6,6.3-9.2,12.7-14.2,18.7a26.9,26.9,0,0,1-7.6,6c-3,1.7-5.2.1-4.9-3.3a70.4,70.4,0,0,1,1.6-10.3c1.8-7.9,4.3-15.7,4.8-23.9,0.6-10.2-3.8-15.6-14.7-14.3a39.3,39.3,0,0,0-18.4,7.4c-8.4,5.9-15.1,13.6-21.2,21.8l-1.2,1.4a5.8,5.8,0,0,1,.2-2.3,54.9,54.9,0,0,0,2-16.3c-0.4-8.2-5.2-12.5-13.4-12.1s-13.5,3.6-19.3,7.8c-9,6.4-16.3,14.6-23.2,23.2l-1.2,1.4c2.1-7.3,4.5-14.4,6.9-21.6a30.3,30.3,0,0,0,1.1-4.6c0.5-2.8-.7-4.7-3.4-5.4a22.3,22.3,0,0,0-5.4-.7H524.3c-3.7,0-5.4,1.2-5.5,4.8-0.2,5.3-2.1,10.2-3.6,15.1a74.1,74.1,0,0,1-3.5,10,65.8,65.8,0,0,1-5.7,9.2c-2.7,3.8-6,6.8-10.6,8a12.5,12.5,0,0,1-6.5.4c0.8-3.3,1.8-6.4,2.4-9.5,2-11.4-1-21.2-10.1-28.8-7.4-6.2-16.2-8.7-25.6-9.1-16.5-.7-31.4,4.3-44.8,13.6-9.3,6.5-17,14.4-21.5,25-2.9,6.8-4.6,13.8-3.1,21.3,2.1,10.4,8.6,17.2,17.9,21.6s20.9,4.9,31.7,3.5c14.4-1.9,26.8-8.1,37.6-17.7a6.2,6.2,0,0,1,3.7-1.7,50,50,0,0,0,6.3-1.2,55.5,55.5,0,0,0,20.6-9.5l-0.8,2.8-7.2,22.6c-1,3.2,0,4.9,3.3,5.6l1.3,0.2c7.8,0,15.6.1,23.3,0,4.5-.1,7.1-2.3,8.4-6.6,1.8-5.8,3.6-11.7,5.5-17.5a12.5,12.5,0,0,1,1.9-3.9c4.7-5.9,9.7-11.7,15.6-16.6a12,12,0,0,1,3.7-2.3,4.5,4.5,0,0,1,3.4.4c0.5,0.4.6,2,.3,2.9-0.8,2.9-2,5.8-2.9,8.7l-9.3,28.8c-1.2,3.8.2,6,4.1,6.1,8.1,0.2,16.2.2,24.3,0,4.5-.1,6.5-2.1,7.9-6.4s2.1-6.9,3.2-10.3,1.8-7,3.5-10a74,74,0,0,1,13.1-17.1,15.9,15.9,0,0,1,3.6-2.5c1.6-.8,2.8,0,2.9,1.7a6.3,6.3,0,0,1-.1,1.6c-0.9,5.2-1.8,10.3-2.7,15.5s-1.5,10.7-.6,16.1c1.2,7.2,5.6,11.2,12.8,11.5s15-2.6,21.6-6.7c12.2-7.6,22.2-17.7,31.2-28.8,5.5-6.9,10.1-14.3,12.8-22.8C688.9,121.8,688,120.4,685.4,120Zm-228.3-.6c-5.9,3.8-10.5,8.7-12.8,15.6s-1.4,16.6,5.5,21.8l0.4,0.5a22.6,22.6,0,0,1-15,2.8c-9.3-1.5-15-9.5-14.2-19.6,0.6-7.4,4.2-13.2,9.6-18.2a27.4,27.4,0,0,1,12.2-6.8c5.7-1.4,11.2-1.2,16.4,2.3Z"/><rect class="h" x="410.3" y="186.7" width="790.5" height="100.49"/><path class="i" d="M464.5,217.9H445.3V208h50.9v9.9H476.8v54.7H464.5V217.9Z"/><path class="i" d="M501.1,208.9a121.7,121.7,0,0,1,18.6-1.3c9.7,0,16.3,1.5,20.8,5.2a16.1,16.1,0,0,1,5.8,12.9c0,8.3-5.9,14-12.2,16.2v0.3c4.8,1.7,7.7,6.2,9.4,12.5,2.1,8.1,3.9,15.5,5.3,18H536.1c-1-1.9-2.6-7.2-4.5-15.2s-5.1-11.1-12.1-11.3h-6.2v26.6H501.1V208.9Zm12.2,28.6h7.3c8.3,0,13.5-4.2,13.5-10.6s-5.2-10.4-13.2-10.4a36.9,36.9,0,0,0-7.6.6v20.4Z"/><path class="i" d="M566.8,208v37.7c0,12.7,5.5,18.5,13.8,18.5s14.2-5.8,14.2-18.5V208h12.3v36.9c0,19.9-10.7,28.8-26.9,28.8s-25.7-8.3-25.7-28.7V208h12.3Z"/><path class="i" d="M666.5,270.7c-2.9,1.4-9.3,2.9-17.4,2.9-21.4,0-34.4-12.8-34.4-32.5,0-21.3,15.4-34.1,36-34.1,8.1,0,13.9,1.6,16.4,2.9l-2.7,9.4a34,34,0,0,0-13.2-2.5c-13.7,0-23.6,8.2-23.6,23.8s8.7,23.3,23.5,23.3a35.7,35.7,0,0,0,13.4-2.4Z"/><path class="i" d="M674,208h12.2v29.7h0.3c1.6-2.5,3.3-4.8,4.9-7L709,208h15.2L701,235.6l24.7,37.1H711.3L692.2,243l-6,6.9v22.7H674V208Z"/><path class="i" d="M795.2,270.7c-2.9,1.4-9.3,2.9-17.4,2.9-21.4,0-34.4-12.8-34.4-32.5,0-21.3,15.4-34.1,36-34.1,8.1,0,13.9,1.6,16.4,2.9l-2.7,9.4a34,34,0,0,0-13.2-2.5c-13.7,0-23.6,8.2-23.6,23.8s8.7,23.3,23.5,23.3a35.7,35.7,0,0,0,13.4-2.4Z"/><path class="i" d="M859.9,239.7c0,21.7-13.7,34-32.3,34s-31-13.9-31-32.9,13-33.8,32-33.8S859.9,221.3,859.9,239.7Zm-50.3,1c0,13.1,6.9,23.6,18.7,23.6s18.6-10.5,18.6-24.1-6.3-23.7-18.6-23.7S809.6,227.3,809.6,240.6Z"/><path class="i" d="M924.4,246.3c-0.4-8.3-.9-18.4-0.8-27.1h-0.3c-2.2,7.9-5,16.6-8,24.7l-9.8,28H896l-9-27.6c-2.6-8.2-5-17.1-6.8-25.1H880c-0.3,8.4-.7,18.7-1.2,27.5l-1.5,26H865.8l4.5-64.6h16.2l8.8,26c2.4,7.6,4.5,15.2,6.2,22.4h0.3c1.8-7,4.1-15,6.7-22.5l9.3-25.9h16l3.9,64.6h-12Z"/><path class="i" d="M947.2,208.9a111.2,111.2,0,0,1,18.8-1.3c9,0,15.6,1.8,19.9,5.3a17.9,17.9,0,0,1,6.6,14.3c0,6.1-2,11.2-5.8,14.7s-12.6,6.9-21.3,6.9a36.1,36.1,0,0,1-6-.4v24.3H947.2V208.9ZM959.4,239a25.9,25.9,0,0,0,6,.5c9.2,0,14.8-4.3,14.8-11.9s-5.2-11-13.7-11a35.4,35.4,0,0,0-7.1.6V239Z"/><path class="i" d="M1006.5,254.3l-5.8,18.3H988l21.6-64.6h15.7l21.9,64.6H1034l-6.1-18.3h-21.4Zm19.3-8.9-5.3-15.9c-1.3-3.9-2.4-8.3-3.4-12.1h-0.2c-1,3.7-2,8.2-3.2,12.1l-5.2,15.9h17.3Z"/><path class="i" d="M1053.6,272.6V208h14l17.4,27.7a174.8,174.8,0,0,1,11.5,21.7h0.2c-0.8-8.6-1.1-17-1.1-26.8V208H1107v64.6h-12.7l-17.6-28.4a221.6,221.6,0,0,1-12.1-22.3h-0.3c0.5,8.3.6,16.9,0.6,27.5v23.1h-11.3Z"/><path class="i" d="M1132.2,272.6V245.7L1110.9,208h14l8.1,16.6c2.3,4.8,4,8.4,5.8,12.8h0.2c1.7-4.1,3.6-8.1,5.9-12.8L1153,208h13.9l-22.4,37.4v27.2h-12.3Z"/><path class="j" d="M431.4,295.8c-0.1-.8,1.3-0.2,1.8-0.4S431.9,295.6,431.4,295.8Z"/><path class="j" d="M429.2,296.1c-0.1-.8,1.3-0.2,1.8-0.4S429.7,295.9,429.2,296.1Z"/><path class="j" d="M426.6,296.5c0-.8,1.6-0.2,2.2-0.4s-1.3.2-1.8,0.4h-0.4Z"/><path class="k" d="M425.5,296.9v-0.4H427C426.9,297.1,426.1,296.8,425.5,296.9Z"/><path class="l" d="M427,297.2c0.1-.5.9-0.3,1.5-0.4S427.5,297.2,427,297.2Z"/><path class="j" d="M436.5,294.7c0.3,1-1.7-.3-1.5.7H434a3.3,3.3,0,0,1,2.6-.7"/><path class="k" d="M437.6,294.7a1.8,1.8,0,0,1-1.8.7h-0.7c-0.3-1,1.7.3,1.5-.7"/><path class="l" d="M428.8,296.9c0.2-.8,1.8-0.1,2.6-0.4S429.6,296.7,428.8,296.9Z"/><path class="m" d="M313,6.6a1.1,1.1,0,0,0,.7.7c0.2,0.7,1,.7.7,1.8s-1.1-.6-1.8-0.7-1-.7-1.5-1.1-1-.2-1.1-0.7a1,1,0,0,0-1.1-.7c-0.1-.5-1.1-0.1-1.1-0.7s-0.6-.8-1.5-0.7-0.9-.3-1.5-0.4a1,1,0,0,0-1.1-.7c-0.1-.5-0.9-0.3-1.5-0.4s-0.7-.3-1.1-0.4-1.3-.2-1.8-0.4h-1.1c-0.2-.8-1.8-0.1-2.6-0.4s-2-.6-1.8,0h-1.8c-0.8.2-2.4-.5-2.6,0.4-2.6-.5-1.8,2,0.4,1.5a3.7,3.7,0,0,0,2.2,1.1,1,1,0,0,0,1.1.7A9.2,9.2,0,0,1,295.4,7a2.6,2.6,0,0,0,2.2,1.5c0.3-.1.3,0.1,0.4,0.4a1.9,1.9,0,0,0,1.1,1.1h0.4a1.1,1.1,0,0,0,.7.7c0.5,0.8,2.6.1,3.7,0.4h6.2v0.7c-0.8.2-2.4-.5-2.6,0.4s-1.4-.2-1.5.4h-3.3c-0.3.3-.6,1,0,1.1v0.7c0.2,0.6-.4,2.2.4,2.2v3.3c0.2,1-.5,2.9.4,3.3v3.3c0.2,0.9-.5,2.7.4,2.9v3.3c0.2,0.9-.5,2.7.4,2.9v3.3c0.2,0.9-.5,2.7.4,2.9v1.8h-2.9V43.2c0.6,0.2.6-2,0-1.8V34.8c-0.2-2.1.5-5.1-.4-6.6V21.6c-0.2-2.1.5-5.1-.4-6.6h-0.4V14.3c0.1-.6-0.3-0.6-0.4-1.1h-1.8c-0.5.2-1.9-.4-1.8,0.4s-1-.1-1.1.4h-0.7c-0.5.2-1.9-.4-1.8,0.4s-0.8.4-1.5,0.4-1.4-.2-1.5.4-1,.5-1.8.4a1.8,1.8,0,0,0-1.8.7c-0.5.2-1.9-.4-1.8,0.4s-0.6.3-1.1,0.4-1.4-.2-1.5.4-1.8.1-2.2,0.7-1,.2-1.1.7-0.8.7-1.8,0.4-1.4.1-1.5,0.7h-0.4c-0.8-.1-1.4.1-1.5,0.7a9.7,9.7,0,0,1-2.9,1.1,1,1,0,0,0-1.1.7l-4,1.8a1,1,0,0,0-1.1.7,1,1,0,0,0-1.1.7h-0.4a1,1,0,0,0-1.1.7c0,0.4-.4.3-0.7,0.4a1.5,1.5,0,0,0-1.5,1.1,3.4,3.4,0,0,0-2.2,1.5c-0.7.1-.7,1-1.5,1.1a1,1,0,0,0-1.1.7c-1.1,1.1-2.5,1.9-3.7,2.9s-1.6,1.1-2.2,1.8a10.1,10.1,0,0,0-2.6,2.6c-0.3-.1-0.3.1-0.4,0.4a10.1,10.1,0,0,0-2.6,2.6,7.5,7.5,0,0,0-2.2,2.2c0,0.7-1,.5-0.7,1.5s-0.5,1.4-1.5,1.5a2.9,2.9,0,0,0-1.5,1.8,1,1,0,0,0-.7,1.1c-0.1.9-1.3,0.7-1.1,1.8a7.7,7.7,0,0,0-2.2,3.3c-0.3.7-.9,1-1.1,1.8a1.6,1.6,0,0,0-1.1,1.8c-0.4,0-.3.4-0.4,0.7a1.1,1.1,0,0,0-.7.7,1.6,1.6,0,0,0-.7,1.5v0.4c-0.6.3-.7,1.3-1.1,1.8s-0.8.6-.7,1.5a0.6,0.6,0,0,1-.4.7c-0.6.1-.8,0.6-0.7,1.5v0.4a2.6,2.6,0,0,0-.7,1.1c0.1,0.6-.3.6-0.4,1.1a1,1,0,0,0-.7,1.1,2.1,2.1,0,0,0-.4,1.5,2.4,2.4,0,0,0-.4.7c-0.6.1-.8,0.6-0.7,1.5s-0.3.9-.4,1.5-1.2.3-.7,1.5-0.4.8-1.1,0.7V75.9c0.5-.9.6-2.1,1.1-2.9s0.3-.9.4-1.5,0.8-1.1.7-2.2,0.3-.9.4-1.5,0.3-.4.4-0.7,0.8-.6.7-1.5V65.2c0.6-.1.8-0.6,0.7-1.5V63.4c0.6-.1.8-0.6,0.7-1.5a32.9,32.9,0,0,1,1.5-3.3c0.6-.1.8-0.6,0.7-1.5a1,1,0,0,0,.7-1.1,1.7,1.7,0,0,0,.4-1.1,1,1,0,0,0,.7-1.1c1.9-2.9,3.3-6.3,5.5-8.8a1,1,0,0,0,.7-1.1c-0.1-.3.1-0.3,0.4-0.4a1,1,0,0,0,.7-1.1c-0.1-.3.1-0.3,0.4-0.4a1.5,1.5,0,0,0,1.1-1.5c0.6-.3.7-1.2,1.5-1.5a7.4,7.4,0,0,0,2.2-2.2c-0.2-.8.7-0.5,0.7-1.1l1.8-1.8h0.4a10.1,10.1,0,0,0,2.6-2.6,1.1,1.1,0,0,1,.7-0.7,1.5,1.5,0,0,0,1.5-1.1,1.9,1.9,0,0,0,1.1-1.1c-0.1-.3.1-0.3,0.4-0.4a2,2,0,0,0,1.8-1.1,1.1,1.1,0,0,0,.7-0.7,7.7,7.7,0,0,0,3.3-2.2c1.8-.8,3.4-2,5.1-2.9a4.3,4.3,0,0,0,2.9-1.5c1.8-.6,3.4-1.5,5.1-2.2s1.4-.1,1.5-0.7a49.3,49.3,0,0,0,6.6-2.2c0.5-.2,1.9.4,1.8-0.4s1,0.1,1.1-.4,1.9,0.4,1.8-.4,1,0.1,1.1-.4,2.2,0.4,2.2-.4,1.4,0.2,1.5-.4h0.7c0.5-.2,1.9.4,1.8-0.4s1.4,0.2,1.5-.4H295c0.6,0,1.4.2,1.5-.4h0.7c0.1-.8-0.1-1.4-0.7-1.5a9.7,9.7,0,0,0-1.8-1.1,1,1,0,0,0-1.1-.7c-0.5-.1-0.6-0.6-1.1-0.7s-1.1-1.4-2.2-1.5-2.4-1.5-4-1.8-1.8-.3-2.9-0.4h-2.2c-0.6,0-1.4-.2-1.5.4s-1.9-.4-1.8.4h-1.1c-0.8.2-2.4-.5-2.6,0.4s-1-.1-1.1.4H272c-0.5.2-1.9-.4-1.8,0.4s-1-.1-1.1.4h-0.7c-1.2-.1-2.2,0-2.6.7H265c-0.6,0-1.4-.2-1.5.4s-2.1.1-2.6,0.7-0.7.3-1.1,0.4-1.4-.2-1.5.4-1.3,1.1-2.9.7a1.6,1.6,0,0,0-1.5.7c-2,.9-4.1,1.7-6.2,2.6s-1.4.1-1.5,0.7-1.9,1-2.9,1.5-1.4.1-1.5,0.7-2,1.2-2.9,1.8a2,2,0,0,0-1.8,1.1,2.4,2.4,0,0,1-.7.4,2.4,2.4,0,0,1-.7.4c-1.1,0-1.4.8-1.8,1.5a0.6,0.6,0,0,0-.7.4,1.5,1.5,0,0,0-1.5,1.1,1.5,1.5,0,0,0-1.5,1.1c-0.5.1-.6,0.6-1.1,0.7a3.3,3.3,0,0,0-1.5,1.5,1.1,1.1,0,0,0-.7.7,2.4,2.4,0,0,0-.4.7,6.7,6.7,0,0,0-2.9,2.9h-0.4a1.8,1.8,0,0,0-1.1,1.1c-0.6.5-1.4,0.8-1.5,1.8a1.1,1.1,0,0,1-.7.7,1.5,1.5,0,0,0-1.1,1.5c-1.4,1.9-2.8,3.8-4,5.9-0.8.1-.7,1-1.1,1.5a1,1,0,0,0-.7,1.1v0.4a1.5,1.5,0,0,0-1.1,1.5c0.3,1.1-1,.7-0.7,1.8a20.3,20.3,0,0,0-2.6,5.1c-0.9.7-1.2,1.9-1.5,3.3a29.9,29.9,0,0,0-2.6,7.3,9.2,9.2,0,0,0-1.5,2.2,0.6,0.6,0,0,0-.7.4H182.9c-2.7.2-6.3-.5-8.4,0.4h-7c-1.6.2-4.1-.5-5.1,0.4h-5.1c-1.2.2-3.4-.5-4,0.4h-4.8c-1,.2-2.9-0.5-3.3.4h-3.7c-1,.2-2.9-0.5-3.3.4h-3.7c-0.9.2-2.7-.5-2.9,0.4h-3.3c-0.8.2-2.4-.5-2.6,0.4h-3.3c-0.8.2-2.4-.5-2.6,0.4h-2.9c-0.6.2-2.2-.4-2.2,0.4h-2.9c-0.6.2-2.2-.4-2.2,0.4H107c-0.6.2-2.2-.4-2.2,0.4h-2.9c-0.5.2-1.9-.4-1.8,0.4H97.5c-0.5.2-1.9-.4-1.8,0.4H92.7c-0.6,0-1.4-.2-1.5.4H88.7c-0.5.2-1.9-.4-1.8,0.4s-1.4-.2-1.5.4-0.3.4-.4,0.7-0.3.1-.4,0.4A2,2,0,0,0,83.6,74c0,1.2-.8,1.6-1.1,2.6a1.8,1.8,0,0,0-.7,1.8c-0.7.6-.2,2.2-1.1,2.6s-0.3.9-.4,1.5a1.7,1.7,0,0,0-.4,1.1c-0.5.1-.3,0.9-0.4,1.5s-0.6,1.4-.4,2.6-0.2,1.3-.4,1.8-0.3.7-.4,1.1-0.9,3,.4,2.6a16.4,16.4,0,0,1,1.8,1.5,1.8,1.8,0,0,0,1.1,1.1v0.7H80.6c-1-1.2-2.6-1.8-3.7-2.9V91.3c0.8-.3.1-2.1,0.4-2.9V87.6c0.5-.1.3-0.9,0.4-1.5s0.2-1.3.4-1.8V83.6c0.7-.4.8-1.4,0.7-2.6V80.6c0.4,0,.3-0.4.4-0.7s0.3-.9.4-1.5,0.3-1.9.7-2.6,0.7-.5.7-1.1V74.4c0.6-.1.8-0.6,0.7-1.5s1.2-2.9,2.2-4,2.9,0.5,3.3-.4,1.9,0.4,1.8-.4h1.1c0.8-.2,2.4.5,2.6-0.4s0.3-.1.4-0.4a3.3,3.3,0,0,0,.7-2.6,7.6,7.6,0,0,1,1.1-3.3,1.6,1.6,0,0,0,.7-1.5A1.7,1.7,0,0,0,96,59c-0.1-.6.3-0.6,0.4-1.1A4.3,4.3,0,0,0,97.9,55,2,2,0,0,0,99,53.1c0-.5-0.1-1,0.4-1.1a1,1,0,0,0,.7-1.1c0.8-.1.3-1.4,1.1-1.5a1,1,0,0,0,.7-1.1,2,2,0,0,0,1.1-1.8c0.4-.1.2-0.7,0.7-0.7a1.5,1.5,0,0,0,1.1-1.5c0.5-1,1.5-1.4,1.8-2.6a2.4,2.4,0,0,1,.7-0.4c0.3,0.1.3-.1,0.4-0.4a25,25,0,0,0,4-4c0.3,0.1.3-.1,0.4-0.4a2.4,2.4,0,0,0,.4-0.7,30.5,30.5,0,0,0,5.5-4.4c0-.4.4-0.3,0.7-0.4a1,1,0,0,0,1.1-.7c0.7-.1.7-1,1.5-1.1a1,1,0,0,0,1.1-.7,2.6,2.6,0,0,1,1.1-.7,1,1,0,0,0,1.1-.7,1,1,0,0,0,1.1-.7c0.3,0.1.3-.1,0.4-0.4h0.4a1.5,1.5,0,0,0,1.5-1.1,2.4,2.4,0,0,1,.7-0.4,1.6,1.6,0,0,0,1.8-1.1c0.9,0.1,1.1-.6,1.8-0.7a1,1,0,0,0,1.1-.7,4.3,4.3,0,0,0,2.9-1.5c1.4,0.1,1.4-1.3,2.9-1.1a1.6,1.6,0,0,0,1.5-.7,2.4,2.4,0,0,1,.7-0.4c0.8,0.1,1.4-.1,1.5-0.7a2.1,2.1,0,0,1,1.5-.4,7.3,7.3,0,0,0,2.6-1.1c0.8,0.1,1.4-.1,1.5-0.7s0.3-.1.4-0.4,1.9,0.4,1.8-.4,1.8,0.1,1.8-.7a12.6,12.6,0,0,1,3.7-1.1,1.6,1.6,0,0,0,1.5-.7H158a3.7,3.7,0,0,0,2.9-.7,0.6,0.6,0,0,0,.7-0.4c0.5-.2,1.9.4,1.8-0.4s1,0.1,1.1-.4,2.2,0,2.6-.7h0.7a21.7,21.7,0,0,0,4.4-1.1c1,0.3.9-.5,1.8-0.4s1.4,0.2,1.5-.4,1,0.1,1.1-.4h0.7c0.5-.2,1.9.4,1.8-0.4s1,0.1,1.1-.4,1.9,0.4,1.8-.4h0.7c0.5-.1,1.4.1,1.5-0.4h0.7c0.6-.2,2.2.4,2.2-0.4s1,0.1,1.1-.4,2.9,0.5,3.3-.4,1.4,0.2,1.5-.4h1.1c0.6-.2,2.2.4,2.2-0.4s1.9,0.4,1.8-.4h2.6c0.6,0,1.4.2,1.5-.4h1.8c0.6,0,1.4.2,1.5-.4h1.8c0.6,0,1.4.2,1.5-.4h2.2c0.5-.2,1.9.4,1.8-0.4h2.2c0.5-.2,1.9.4,1.8-0.4h3.3c0.5-.2,1.9.4,1.8-0.4H225c0.9-.2,2.7.5,2.9-0.4h4.4c1.2-.2,3.4.5,4-0.4h31.5c0.6,0.1,1.8-.4,1.5.7s-4.6-.5-5.9.4h-5.1c-1.1.2-3.2-.5-3.7,0.4h-4.4c-0.9.2-2.7-.5-2.9,0.4h-3.3c-0.8.2-2.4-.5-2.6,0.4h-2.9c-0.6.2-2.2-.4-2.2,0.4h-2.9c-0.5.2-1.9-.4-1.8,0.4h-2.6c-0.5.2-1.9-.4-1.8,0.4H225c-0.5.2-1.9-.4-1.8,0.4H221c-0.6,0-1.4-.2-1.5.4h-1.8c-0.5.2-1.9-.4-1.8,0.4h-1.5c-0.6,0-1.4-.2-1.5.4h-1.8c-0.6,0-1.4-.2-1.5.4h-1.5c-0.6,0-1.4-.2-1.5.4s-1.4-.2-1.5.4h-1.1c-0.8.2-2.4-.5-2.6,0.4s-1.4-.2-1.5.4H199c-0.8.2-2.4-.5-2.6,0.4s-1-.1-1.1.4h-1.1c-0.6.2-2.2-.4-2.2,0.4s-1-.1-1.1.4h-1.1c-0.6.2-2.2-.4-2.2,0.4s-1-.1-1.1.4h-0.7c-0.5.2-1.9-.4-1.8,0.4h-1.1a4.8,4.8,0,0,0-2.6.7c-0.5,0-1-.1-1.1.4h-0.7c-2,0-3.2.7-4.8,1.1s-0.9.5-1.8,0.4-1.4-.2-1.5.4-1-.1-1.1.4-2.2,0-2.6.7-1.9-.4-1.8.4a0.6,0.6,0,0,0-.7.4h-0.4c-0.6,0-1.4-.2-1.5.4s-0.7.3-1.1,0.4-1.4-.2-1.5.4-1.1.8-2.2,0.7-0.6.3-1.1,0.4a1,1,0,0,0-1.1.7c-0.6-.1-0.6.3-1.1,0.4a2.1,2.1,0,0,0-2.2,1.1c-0.3-.1-0.3.1-0.4,0.4H151a1.6,1.6,0,0,0-1.5.7,2,2,0,0,0-1.8,1.1c-0.8-.1-1.4.1-1.5,0.7s-0.1.3-.4,0.4-0.6.3-1.1,0.4a1,1,0,0,0-1.1.7,13.9,13.9,0,0,1-2.6,1.5,1,1,0,0,0-1.1.7,1,1,0,0,0-1.1.7,1,1,0,0,0-1.1.7,1.1,1.1,0,0,0-.7.7,1.5,1.5,0,0,0-1.5,1.1c-1.3.4-2,1.4-2.9,2.2a16.1,16.1,0,0,0-5.5,5.5,6.2,6.2,0,0,0-1.1,1.5,4.1,4.1,0,0,0-1.8,2.6V41a1.5,1.5,0,0,0-1.1,1.5v0.4a1.6,1.6,0,0,0-1.1,1.8c0,0.7-.4.8-0.4,1.5a1,1,0,0,0-.7,1.1v1.1a1,1,0,0,0-.7,1.1c-0.5.1-.3,0.9-0.4,1.5v0.7c-0.7.4-.8,1.4-0.7,2.6v0.4c-0.4.1-.3,0.7-0.4,1.1a2.4,2.4,0,0,0,.7.4h5.1c1.6-.2,4.1.5,5.1-0.4H136c1.6-.2,4.1.5,5.1-0.4h6.2c1.6-.2,4.1.5,5.1-0.4h6.6c2.1-.2,5.1.5,6.6-0.4H173c2.1-.2,5.1.5,6.6-0.4h7c2-.2,4.9.5,6.2-0.4s0.7-.3.7-0.7a2.4,2.4,0,0,0,.4-0.7,4,4,0,0,0,1.8-2.2,1,1,0,0,0,.7-1.1,2.9,2.9,0,0,1,1.5-1.8,1.5,1.5,0,0,0,1.1-1.5c0.8-.3.5-1.7,1.5-1.8a7.4,7.4,0,0,0,2.2-2.2A2.3,2.3,0,0,0,203,41a1.1,1.1,0,0,0,.7-0.7,7.5,7.5,0,0,0,2.2-2.2V37.8a3.3,3.3,0,0,0,1.5-1.5,1.9,1.9,0,0,0,1.1-1.1,1.1,1.1,0,0,0,.7-0.7,13.3,13.3,0,0,0,2.9-2.9,2.4,2.4,0,0,1,.7-0.4,5.2,5.2,0,0,0,1.8-1.8,1.1,1.1,0,0,0,.7-0.7,52.8,52.8,0,0,1,4.8-4,1,1,0,0,0,1.1-.7c-0.1-.3.1-0.3,0.4-0.4a1,1,0,0,0,1.1-.7,44.9,44.9,0,0,1,8.4-4.8,1,1,0,0,0,1.1-.7c0.9-1.2,2.6-1.6,3.7-2.6s1.4-.1,1.5-0.7,1.1-.1,1.1-0.7a17.4,17.4,0,0,0,5.9-2.9c1.2-.2,1.9-1,3.3-1.1a1.6,1.6,0,0,0,1.5-.7,0.6,0.6,0,0,0,.7-0.4c0.9,0.1,1.8.1,1.8-.7a21.4,21.4,0,0,1,4.8-1.5c0.6,0,1.4.2,1.5-.4s0.7-.3,1.1-0.4,1.9,0.4,1.8-.4,0.8-.4,1.5-0.4,1.9,0.4,1.8-.4,1,0.1,1.1-.4h0.4c0.6-.2,2.2.4,2.2-0.4s1,0.1,1.1-.4h1.1c0.8-.2,2.4.5,2.6-0.4s1.9,0.4,1.8-.4h3.3c0.6,0,1.4.2,1.5-.4s1.9,0.4,1.8-.4h1.1c0.5-.2,1.9.4,1.8-0.4s0.8-.4,1.5-0.4,2.4,0.5,2.6-.4h1.5c0.8-.2,2.4.5,2.6-0.4h2.2c0.2,0.8,1.8.1,2.6,0.4h1.8c-0.1.8,1.3,0.2,1.8,0.4h0.7c0.3,0.6,1.1.8,2.2,0.7a1.7,1.7,0,0,0,1.1.4c0.6-.1.6,0.3,1.1,0.4s0.6,0.8,1.5.7,0.4,0.3.7,0.4a3.4,3.4,0,0,0,2.2,1.5,31.1,31.1,0,0,0,2.6,1.8H313ZM134.5,25.3a2,2,0,0,0-1.8,1.1c-0.5.5-1.8,0.2-1.8,1.1a1.7,1.7,0,0,0-1.1.4,1,1,0,0,0-1.1.7,1,1,0,0,0-1.1.7h-0.4a1,1,0,0,0-1.1.7,0.6,0.6,0,0,1-.7.4,1.5,1.5,0,0,0-1.5,1.1c-0.1.5-.8,0.4-1.1,0.7a1,1,0,0,0-1.1.7c-2.5,1.7-5,3.6-7.3,5.5-1.1,0-1.4.8-1.8,1.5a1.9,1.9,0,0,0-1.1,1.1l-3.3,3.3a1.8,1.8,0,0,0-1.1,1.1,4,4,0,0,0-1.8,2.2,2.6,2.6,0,0,1-.7,1.1,3.3,3.3,0,0,0-1.8,2.6c0,0.2-.1.4-0.4,0.4a1.5,1.5,0,0,0-1.1,1.5c0.5,1.2-1.2.3-.7,1.5a1,1,0,0,0-.7,1.1c-0.3,1.2-1.4,1.5-1.5,2.9H97.9c0,0.5-.5.5-0.4,1.1s-0.5.9-.7,1.5a1.6,1.6,0,0,0-.7,1.5,2.1,2.1,0,0,1-.4,1.5H95.3a2.4,2.4,0,0,0-.4,1.5V66a0.6,0.6,0,0,0-.4.7,0.6,0.6,0,0,0-.4.7c0.4,0.4,2.6.8,2.9,0H99c0.5-.1,1.4.1,1.5-0.4h2.2c0.5-.1,1.4.1,1.5-0.4h1.8c0.5-.2,1.9.4,1.8-0.4H110c0.5-.1,1.4.1,1.5-0.4h2.2c0.5-.2,1.9.4,1.8-0.4H118c0.5-.1,1.4.1,1.5-0.4H122c0.5-.2,1.9.4,1.8-0.4h2.2c0.6-.2,2.2.4,2.2-0.4h2.6c0.6-.2,2.2.4,2.2-0.4h2.6c0.6-.2,2.2.4,2.2-0.4h2.9c0.8-.2,2.4.5,2.6-0.4h3.3c0.8-.2,2.4.5,2.6-0.4h3.7c1-.2,2.9.5,3.3-0.4h4.8c0.9-.2,2.7.5,2.9-0.4H169c1.6-.2,4.1.5,5.1-0.4h11c3.7-.2,8.3.5,11.4-0.4h0.7c1-.2,2.9.5,3.3-0.4s0.8-.9.7-1.8,0-1.9.7-2.2,0.8-.6.7-1.5H203c-0.3-1.1.6-1.1,0.4-2.2a1,1,0,0,0,.7-1.1c0-.5.5-0.5,0.4-1.1a1.7,1.7,0,0,1,.4-1.1,9.7,9.7,0,0,0,2.2-4.4c1,0.3-.3-1.7.7-1.5a1.6,1.6,0,0,0,1.1-1.8c-0.1-.7.5-0.7,0.7-1.1s0.6-1.6,1.1-2.2h0.4a1,1,0,0,0,.7-1.1,1,1,0,0,0,.7-1.1,2.4,2.4,0,0,1,.4-0.7c0.2,0,.4-0.1.4-0.4a2,2,0,0,0,1.1-1.8,1,1,0,0,0-1.1.7,16.8,16.8,0,0,0-3.3,3.3c-0.2,0-.4.1-0.4,0.4s-1.7,1-1.8,2.2V41a2.4,2.4,0,0,0-.7.4,13.8,13.8,0,0,0-3.7,4.4c-0.5.1-.4,0.8-0.7,1.1a16.3,16.3,0,0,1-1.5,1.8h-0.4c0,0.5-.5.5-0.4,1.1s-0.4.1-.4,0.4a1.1,1.1,0,0,0-.7.7,1,1,0,0,0-.7,1.1,2.4,2.4,0,0,1-.4.7h-0.4c0,0.5-.5.5-0.4,1.1s-1.5,2.7-2.9,3.3-3.2-.5-3.7.4h-7.3c-1.6.2-4.1-.5-5.1,0.4h-6.2c-1.7.2-4.4-.5-5.5,0.4h-6.6c-2,.2-4.9-0.5-6.2.4h-7c-2.3.2-5.6-.5-7.3,0.4h-9.2c-2.2.2-5.4-.5-7,0.4h-6.2c-0.7-1-1.9-1.5-1.5-3.7V54.2c0.8,0.1.2-1.3,0.4-1.8s0.7-.8.4-1.8,0.3-.9.4-1.5a25.8,25.8,0,0,1,1.5-4.4h0.4a2.4,2.4,0,0,0,.4-1.5,2,2,0,0,0,1.1-1.8c0.1-.3,0-0.7.4-0.7a1,1,0,0,0,.7-1.1c0.6-.8,1-1.9,1.8-2.6a1.5,1.5,0,0,0,1.1-1.5,1.1,1.1,0,0,0,.7-0.7,29.8,29.8,0,0,0,4.4-4.4,1.1,1.1,0,0,0,.7-0.7,16.2,16.2,0,0,1,1.8-1.5c0.6-.5,1.5-0.7,1.8-1.5h0.4c0.5-.1.6-0.6,1.1-0.7h0.4c0-.2.1-0.4,0.4-0.4V24.9C135.4,25,134.6,24.8,134.5,25.3Z"/><path class="m" d="M201.6,214.4a3.3,3.3,0,0,0,1.5-1.5,10.1,10.1,0,0,0,2.6-2.6c0.3,0.1.3-.1,0.4-0.4s1.4-.3,1.5-1.1a2.3,2.3,0,0,1,.7-0.4,1,1,0,0,0,1.1-.7,2.3,2.3,0,0,1,.7-0.4,1,1,0,0,0,1.1-.7,1.6,1.6,0,0,0,1.5-.7c0.2-.6,1.7,0,1.8-0.7s1.9-.1,2.2-0.7,2.2,0,2.6-.7h0.7c0.5-.2,1.9.4,1.8-0.4s1.4,0.2,1.5-.4h3.7c1-.2,2.9.5,3.3-0.4h9.9c1.8-.2,4.6.5,5.9-0.4h5.1c1.5-.2,3.9.5,4.8-0.4a0.6,0.6,0,0,0,.7-0.4c0.6,0.1.6-2.3,0-2.2v-4.8c-0.2-1.1.5-3.2-.4-3.7v-4c-0.2-1.2.5-3.4-.4-4v-4.8c-0.2-1,.5-2.9-0.4-3.3v-4.8c-0.2-1.5.5-3.9-.4-4.8v-4.8c-0.2-1.4.5-3.7-.4-4.4v-4.8c-0.2-1.4.5-3.7-.4-4.4v-5.1c-0.2-1.5.5-3.9-.4-4.8v-5.5c-0.2-1.6.5-4.1-.4-5.1V121c-0.2-1.6.5-4.1-.4-5.1V110c-0.2-2,.5-4.9-0.4-6.2V97.1c-0.2-2,.5-4.9-0.4-6.2V85.8a2.3,2.3,0,0,0-.7-0.4h-1.5c-0.1-.5-0.9-0.3-1.5-0.4h-2.6c0.1-.8-1.3-0.2-1.8-0.4s-0.9-.3-1.5-0.4h-2.6c0.1-.8-1.3-0.2-1.8-0.4s-1.8-.1-2.6-0.4h-1.5c-0.1-.5-0.9-0.3-1.5-0.4s-2.3.9-1.8,2.6c-0.4.1-.3,0.7-0.4,1.1s-0.2,1.3-.4,1.8v0.7c-0.5.1-.3,0.9-0.4,1.5s-0.2,1.3-.4,1.8v0.7c-0.4.1-.3,0.7-0.4,1.1s-0.2,1.3-.4,1.8v0.7c-0.4.1-.3,0.7-0.4,1.1s-0.2,1.6-.4,2.2v0.7c-0.4.1-.3,0.7-0.4,1.1s-0.2,1.3-.4,1.8v0.7c-0.4.1-.3,0.7-0.4,1.1s-0.2,1.6-.4,2.2v0.7c-0.4.1-.3,0.7-0.4,1.1s-0.2,1.3-.4,1.8v0.7c-0.4.1-.3,0.7-0.4,1.1s-0.1,1.8-.4,2.6-0.3.7-.4,1.1-0.2,1.3-.4,1.8v0.7c-0.4.1-.3,0.7-0.4,1.1s-0.2,1.6-.4,2.2v0.7c-0.4.1-.3,0.7-0.4,1.1s-0.2,1.3-.4,1.8v0.7c-0.4.1-.3,0.7-0.4,1.1s-0.2,1.3-.4,1.8v0.7c-0.4.1-.3,0.7-0.4,1.1s-0.2,1.3-.4,1.8v0.7c-0.4.1-.3,0.7-0.4,1.1a7.3,7.3,0,0,0-.7,3.3v2.6c-0.8.2-.1,1.8-0.4,2.6v2.9c-0.8,0-.2,1.6-0.4,2.2v2.6c-0.8.2-.1,1.8-0.4,2.6v2.6c-0.8,0-.2,1.6-0.4,2.2V162c-0.8.2-.1,1.8-0.4,2.6v2.6c-0.8,0-.2,1.6-0.4,2.2v2.6c-0.8.2-.1,1.8-0.4,2.6V177c-0.8-.1-0.2,1.3-0.4,1.8v3.7c-1.2.4-1.2-.5-1.1-1.5v-0.7c0.8-.9.1-3.3,0.4-4.8v-5.5c0.8-.9.1-3.3,0.4-4.8v-5.1c0.8-.7.1-3,0.4-4.4v-5.9c-0.6,0-1.4-.2-1.5.4h-0.7c-0.6,0-1.4-.2-1.5.4h-1.1c-0.6.3-1.8,0.1-2.2,0.7a0.6,0.6,0,0,0-.7.4h-0.7c-0.6,0-1.4-.2-1.5.4s-1-.1-1.1.4-2.2-.4-2.2.4h-0.7c-1,.4-2.5.2-2.9,1.1h-0.7c-0.6,0-1.4-.2-1.5.4s-1-.1-1.1.4-1.4-.2-1.5.4a2.4,2.4,0,0,0-1.8.4c-1.2-.1-2.2,0-2.6.7H191c-1.1-.1-1.9.1-2.2,0.7H188c-1.1-.1-1.9.1-2.2,0.7h-0.7c-1.1-.1-1.9.1-2.2,0.7h-0.7c-1.1-.1-1.9.1-2.2,0.7h-0.7c-1.1-.1-1.9.1-2.2,0.7a10.7,10.7,0,0,0-5.9,1.5h-0.4c-1,0-2.2-.2-2.2.7h-0.4c-1.2-.1-2.2,0-2.6.7h-0.7c-1.1-.1-1.9.1-2.2,0.7H162c-1.1-.1-1.9.1-2.2,0.7h-0.4c-1.1-.1-1.9.1-2.2,0.7h-0.7c-1.1-.1-1.9.1-2.2,0.7a6.9,6.9,0,0,0-2.9.4c-0.9.3-2.1,0.4-2.6,1.1h-0.7c-1.1-.1-1.9.1-2.2,0.7h-0.7c-1.1-.1-1.9.1-2.2,0.7s-1.9-.4-1.8.4-0.8.4-1.5,0.4-1.9.1-2.2,0.7a0.6,0.6,0,0,0-.7.4c-0.5.2-1.9-.4-1.8,0.4s-1.4-.2-1.5.4-0.3.1-.4,0.4h-1.1c-1.2-.1-2.2,0-2.6.7h-0.7a1.8,1.8,0,0,0-1.8.7c-0.9-.1-0.8.7-1.8,0.4s-3,.2-3.7,1.1-2.2,0-2.6.7-1.9-.4-1.8.4-0.9.5-1.8,0.4H114c-0.2-.8.7-0.5,0.7-1.1s0.3-.1.4-0.4a10.3,10.3,0,0,0,3.3-1.1c0.6,0.1.6-.3,1.1-0.4a1.8,1.8,0,0,0,1.8-.7c1.5-.8,3.5-1.1,5.1-1.8a1,1,0,0,0,1.1-.7h0.4c0.6,0,1.4.2,1.5-.4s1.4,0.2,1.5-.4,0.3-.1.4-0.4,1.8-.1,2.2-0.7,1.9,0.4,1.8-.4a1.7,1.7,0,0,1,1.1-.4c0.8,0.1,1.4-.1,1.5-0.7h0.7a1.8,1.8,0,0,0,1.8-.7c0.6,0,1.4.2,1.5-.4s0.6-.3,1.1-0.4,2.3-.1,1.1-0.4v-0.4h1.1c0.6,0,1.4.2,1.5-.4s0.6-.3,1.1-0.4a7.9,7.9,0,0,0,4-1.1,0.6,0.6,0,0,0,.7-0.4,10.9,10.9,0,0,0,5.1-1.5H158c0.6,0,1.4.2,1.5-.4s1,0.1,1.1-.4,2.2,0,2.6-.7,1.9,0.4,1.8-.4,1.9,0.4,1.8-.4,2.3-.1,1.1-0.4,0.9-.3,1.5-0.4,2.2,0,2.6-.7h0.7c0.6,0,1.4.2,1.5-.4s1,0.1,1.1-.4h0.7c0.6,0,1.4.2,1.5-.4s1,0.1,1.1-.4,2.2,0.4,2.2-.4,1,0.1,1.1-.4h0.7c0.6,0,1.4.2,1.5-.4s1,0.1,1.1-.4h0.7c0.5-.2,1.9.4,1.8-0.4s1,0.1,1.1-.4h0.7c0.6-.2,2.2.4,2.2-0.4s1,0.1,1.1-.4h0.7c0.5-.2,1.9.4,1.8-0.4s1,0.1,1.1-.4h1.1c0.6-.2,2.2.4,2.2-0.4s1,0.1,1.1-.4h0.7c0.8-.2,2.4.5,2.6-0.4s1,0.1,1.1-.4h1.1c0.8-.2,2.4.5,2.6-0.4s1,0.1,1.1-.4h2.6c0.6,0,1.4.2,1.5-.4s1.4,0.2,1.5-.4h2.2c0.5-.5.4-1.6,0.4-2.6v-4.4c0.8-.5.1-2.6,0.4-3.7v-1.5c0.8-.3.1-2.1,0.4-2.9s0.3-.9.4-1.5,0.2-1.3.4-1.8,0.2-1.6.4-2.2,0.1-2.1.4-2.9,0.3-.9.4-1.5,0.2-1.6.4-2.2V121c0.5-.1.3-0.9,0.4-1.5s0.2-1.3.4-1.8v-0.7c0.5-.1.3-0.9,0.4-1.5s0.2-1.6.4-2.2v-0.7c0.5-.1.3-0.9,0.4-1.5s0.1-2.1.4-2.9,0.3-.7.4-1.1,0.2-1.6.4-2.2v-0.7c0.4-.1.3-0.7,0.4-1.1s0.2-1.6.4-2.2v-0.7c0.5-.1.3-0.9,0.4-1.5s0.1-2.1.4-2.9,0.3-.7.4-1.1,0.2-1.6.4-2.2V91.6c0.4-.1.3-0.7,0.4-1.1s0.2-1.6.4-2.2V87.6c0.4-.1.3-0.7,0.4-1.1s0.2-1.6.4-2.2V83.6c0.5-.1.3-0.9,0.4-1.5s0.1-1.6.7-1.8a1.1,1.1,0,0,0,.7-0.7h0.4c0.9,0,1.1-.6,2.2-0.4s1.3,0.2,1.8.4,0.9,0.3,1.5.4h2.9c-0.1.8,1.3,0.2,1.8,0.4s2.1,0.1,2.9.4h1.1c-0.1.8,1.3,0.2,1.8,0.4s0.9,0.3,1.5.4H250c-0.1.8,1.3,0.2,1.8,0.4s1.8,0.1,2.6.4,0.3,1.2,1.1,1.1h0.4v0.7c0.2,1.4-.5,3.7.4,4.4v8.4c0.2,2.7-.5,6.3.4,8.4v9.2c0.2,3.3-.5,7.6.4,10.3v10.6c0.2,3.8-.5,8.5.4,11.7v16.5c0.2,6.7-.5,14.4.4,20.5v0.4c0.2,5.6-.5,12.2.4,17.2,0.4,0.8,2.3.1,3.3,0.4s4.6,0.5,5.9-.4h2.9v-5.1c-0.2-1.2.5-3.4-.4-4v-4.8c-0.2-1.2.5-3.4-.4-4v-4.4c-0.2-1.4.5-3.7-.4-4.4v-4.8c-0.2-1.1.5-3.2-.4-3.7v-7c-0.2-2.3.5-5.6-.4-7.3v-7.3c-0.2-2.2.5-5.4-.4-7v-7.3c-0.2-5.3.5-11.5-.4-16.1V88c-0.2-4.2.5-9.3-.4-12.8-0.1-.5-0.9-0.3-1.5-0.4h-1.1c-0.1-.5-0.9-0.3-1.5-0.4s-1.6-.2-2.2-0.4h-1.1c-0.1-.5-0.9-0.3-1.5-0.4s-1.8-.1-2.6-0.4h-1.1c-0.1-.5-0.9-0.3-1.5-0.4s-1.3-.2-1.8-0.4h-1.1c-0.1-.4-0.7-0.3-1.1-0.4s-1.3-.2-1.8-0.4h-1.1c-0.1-.4-0.7-0.3-1.1-0.4s-1.6-.2-2.2-0.4h-0.7c-0.1-.4-0.7-0.3-1.1-0.4s-1.6-.2-2.2-0.4h-0.7c-0.1-.4-0.7-0.3-1.1-0.4s-1.6-.2-2.2-0.4h-0.7c-0.1-.4-0.7-0.3-1.1-0.4s-2.8-.7-0.7-1.1h2.6c-0.1.8,1.3,0.2,1.8,0.4H239c-0.1.8,1.3,0.2,1.8,0.4H243c-0.1.8,1.3,0.2,1.8,0.4H247c0,0.8,1.6.2,2.2,0.4h2.2c-0.1.8,1.3,0.2,1.8,0.4h1.8c0.1,0.5.9,0.3,1.5,0.4h2.9c-0.1.8,1.3,0.2,1.8,0.4s0.9,0.3,1.5.4h1.8c0.2,0.8,1.8.1,2.6,0.4s0.2-1.3.4-1.8V68.9c0.9-5.3.1-12.1,0.4-18h0.7c0.2,1.6-.5,4.1.4,5.1v4.4c0.2,1.1-.5,3.2.4,3.7v7.3a2.1,2.1,0,0,0,1.5.4H272c-0.1.8,1.3,0.2,1.8,0.4s0.9,0.3,1.5.4h2.6c0.1,0.5.9,0.3,1.5,0.4s1.8,0.1,2.6.4h1.1c0.1,0.4.7,0.3,1.1,0.4s1.8,0.1,2.6.4h1.1c0.1,0.5.9,0.3,1.5,0.4s1.8,0.1,2.6.4h1.1c0.1,0.4.7,0.3,1.1,0.4s1.8,0.1,2.6.4h1.1c0.1,0.5.9,0.3,1.5,0.4s1.6,0.2,2.2.4,1.7,0.6,1.5,0V70c-0.2-1.6.5-4.1-.4-5.1V59.4c0-.6.2-1.4-0.4-1.5V57.5h3.3c0.2,1.5-.5,3.9.4,4.8V66c0.2,1-.5,2.9.4,3.3v4c0.2,1.4-.6,3.8.7,4s1.6,0.4,2.6.4h0.7c0.1,0.5.9,0.3,1.5,0.4s1.3,0.2,1.8.4h1.1c0.1,0.4.7,0.3,1.1,0.4s1.3,0.2,1.8.4h1.1c0.1,0.4.7,0.3,1.1,0.4s2,0.6,1.8,0,0.3-.9.4-1.5,0.4-1.9-.4-1.8V74.4c-0.2-.5.4-1.9-0.4-1.8V70.4c0-.6.2-1.4-0.4-1.5V66.7c-0.2-.5.4-1.9-0.4-1.8V62.7c0-.6.2-1.4-0.4-1.5V59c-0.2-.5.4-1.9-0.4-1.8V56.8c0.3-.1.7,0,0.7-0.4h1.1c-0.1.3,0.1,0.3,0.4,0.4s-0.5,2.4.4,2.6-0.5,2.7.4,2.9v1.8c0,0.6-.2,1.4.4,1.5v1.5c0,0.6-.2,1.4.4,1.5v1.8c0,0.6-.2,1.4.4,1.5v1.5c0,0.6-.2,1.4.4,1.5s-0.4,1.9.4,1.8v2.9c0,0.6-.2,1.4.4,1.5v1.8c0.2,0.5-.4,1.9.4,1.8v2.9c0.2,1-.5,2.9.4,3.3v3.7c0.2,0.9-.5,2.7.4,2.9v2.9c0.2,0.9-.5,2.7.4,2.9v3.3c0.2,0.9-.5,2.7.4,2.9v3.3c0.2,0.9-.5,2.7.4,2.9v3.3c0.2,0.9-.5,2.7.4,2.9v1.5a2.1,2.1,0,0,0-.4,1.5,3,3,0,0,0-.7,2.2v0.7c-0.5.3-.5,1.2-0.7,1.8v0.7a1,1,0,0,0-.7,1.1V133h-0.4v-4.8c-0.2-1.1.5-3.2-.4-3.7v-4c-0.2-1.2.5-3.4-.4-4v-4c-0.2-1.1.5-3.2-.4-3.7v-4.4c-0.2-1.1.5-3.2-.4-3.7v-4c-0.2-1.2.5-3.4-.4-4v-4c-0.2-1.1.5-3.2-.4-3.7V81.7c0.2-1.5-1.4-1-2.6-1.1h-2.2c0.1-.8-1.3-0.2-1.8-0.4H313c0.1-.8-1.3-0.2-1.8-0.4H309c0-.8-1.6-0.2-2.2-0.4s-0.7,4.2,0,5.1v4c0.2,1.1-.5,3.2.4,3.7v4c0.2,1.1-.5,3.2.4,3.7v4.4c0.2,1.4-.5,3.7.4,4.4v4.8c0.2,1.5-.5,3.9.4,4.8v5.5c0.2,1.6-.5,4.1.4,5.1v5.9c0.2,1.7-.5,4.4.4,5.5v5.9c0.2,2-.5,4.9.4,6.2v7c0.2,2.1-.5,5.1.4,6.6v7.7c0.2,2.4-.5,5.9.4,7.7v8.8c0.2,2.4-.5,5.9.4,7.7v0.4c0.2,0.5-.4,1.9.4,1.8s2.7,0.5,2.9-.4,0.6-.3,1.1-0.4,1.9-.1,2.2-0.7,1.4,0.2,1.5-.4,0.8-.4,1.5-0.4a1.8,1.8,0,0,0,1.8-.7c0.6,0,1.4.2,1.5-.4a4.4,4.4,0,0,0,3.3-1.1h1.1v-2.6c-0.2-.8.5-2.4-0.4-2.6v-3.3c-0.2-1,.5-2.9-0.4-3.3v-2.6h3.7v4c0.2,0.8-.5,2.4.4,2.6v4c0.2,0.8-.5,2.4.4,2.6v2.2a1.6,1.6,0,0,0-.7,1.5c-0.7.1-.7,1-1.5,1.1h-0.4c-0.6,0-1.4-.2-1.5.4s-1-.1-1.1.4h-0.7a1.8,1.8,0,0,0-1.8.7c-1.2-.1-2.2,0-2.6.7s-1.4-.2-1.5.4a0.6,0.6,0,0,0-.7.4h-0.7a18.4,18.4,0,0,0-3.7,1.1c-0.6-.1-0.6.3-1.1,0.4h-8.4c-2.7.2-6.3-.5-8.4,0.4h-8.8c-2.7.2-6.3-.5-8.4,0.4h-9.2c-2.9.2-6.8-.5-9.2,0.4H250c-2.8.2-6.6-.5-8.8,0.4h-6.2a14.9,14.9,0,0,0-7.3,0h-2.9c-0.6,0-1.4-.2-1.5.4s-2.4-.5-2.6.4-1.4-.2-1.5.4-1-.1-1.1.4-1.9-.4-1.8.4-1,.2-1.1.7h-0.7a1,1,0,0,0-1.1.7h-0.7c-0.3.3-1,.2-1.1,0.7s-0.7.7-1.5,0.7a4.1,4.1,0,0,0-2.6,1.8c-0.7.1-1,.7-1.5,1.1h-0.4a5.2,5.2,0,0,0-1.8,1.8v0.4c-0.8.1-.7,1-1.1,1.5s-1.3,1.6-1.8,2.6v0.4c-0.3-.1-0.3.1-0.4,0.4s-0.8.6-.7,1.5a1,1,0,0,0-.7,1.1,1.7,1.7,0,0,0-.4,1.1,22.6,22.6,0,0,0-1.1,3.3c-0.9,0-.7,1.2-0.7,2.2s-0.8,1.1-.7,2.2-0.2,1.3-.4,1.8-0.2,1.3-.4,1.8V236c-0.6.2-.3,1.2-1.5,0.7V236c0.5-.1.3-0.9,0.4-1.5s0.2-1.6.4-2.2,0.6-1.1.4-2.2,0.3-.9.4-1.5,1-1.2.7-2.6v-0.7c0.9,0,.7-1.2.7-2.2a0.6,0.6,0,0,1,.4-0.7,1.6,1.6,0,0,0,.7-1.5v-0.7a1.6,1.6,0,0,0,.7-1.5,1.1,1.1,0,0,0,.7-0.7,1,1,0,0,0,.7-1.1c0.1-1,1.1-1.1,1.1-2.2S201.6,214.6,201.6,214.4ZM269.8,75.9v1.8c0.2,1.1-.5,3.2.4,3.7v4.4c0.2,1.5-.5,3.9.4,4.8v7.7c0.2,2.2-.5,5.4.4,7v7.7c0.2,2.3-.5,5.6.4,7.3V129c0.2,7.7-.5,16.4.4,23.5v23.1c-0.9,5.6-.1,12.8-0.4,19.1v6.2c0,0.9,1.2.7,2.2,0.7s4.4,0.5,5.5-.4h5.9c1.7-.2,4.4.5,5.5-0.4h5.5c1.8-.2,4.6.5,5.9-0.4h5.5c0.5-.2,1.9.4,1.8-0.4s0.3-.9.4-1.5v-2.6c-0.2-.8.5-2.4-0.4-2.6v-2.9c-0.2-.8.5-2.4-0.4-2.6v-3.3c-0.2-.6.4-2.2-0.4-2.2v-2.9c-0.2-.9.5-2.7-0.4-2.9v-2.9c-0.2-.8.5-2.4-0.4-2.6v-2.9c-0.2-.9.5-2.7-0.4-2.9V162c-0.2-.9.5-2.7-0.4-2.9v-2.9c-0.2-1,.5-2.9-0.4-3.3v-3.7c-0.2-.9.5-2.7-0.4-2.9v-3.7c-0.2-1,.5-2.9-0.4-3.3v-3.7c-0.2-1,.5-2.9-0.4-3.3v-4c-0.2-1.1.5-3.2-.4-3.7v-4c-0.2-1,.5-2.9-0.4-3.3v-3.7c-0.2-1.1.5-3.2-.4-3.7v-4.4c-0.2-1.1.5-3.2-.4-3.7V97.5c-0.2-1.2.5-3.4-.4-4V88.7c-0.2-1.4.5-3.7-.4-4.4V79.5a3.1,3.1,0,0,0-2.2-.4c0.1-.8-1.3-0.2-1.8-0.4h-1.8c-0.1-.5-0.9-0.3-1.5-0.4h-2.9c0.1-.8-1.3-0.2-1.8-0.4s-0.9-.3-1.5-0.4h-2.9c0.1-.8-1.3-0.2-1.8-0.4s-0.9-.3-1.5-0.4h-2.9c0.1-.8-1.3-0.2-1.8-0.4s-0.9-.3-1.5-0.4h-2.6c-0.1-.5-0.9-0.3-1.5-0.4S270,75.3,269.8,75.9Z"/><path class="m" d="M70.7,285.5a1.5,1.5,0,0,0,1.1-1.5,1.1,1.1,0,0,0,.7-0.7,2.6,2.6,0,0,0,.7-1.1,1,1,0,0,0,.7-1.1,2.4,2.4,0,0,0,.4-0.7,0.4,0.4,0,0,0,0-.7c0-.4-0.4-0.3-0.7-0.4s-2.6-.1-3.7-0.4H67.8c-0.4-.8-2.3-0.1-3.3-0.4H63.4c-0.2-.8-1.8-0.1-2.6-0.4H59c-0.4-.8-2.3-0.1-3.3-0.4H54.6c0.1-.8-1.3-0.2-1.8-0.4H50.9c-0.3-.8-2.1-0.1-2.9-0.4H47.3c0-.8-1.6-0.2-2.2-0.4H43.6c-0.3-.8-2.1-0.1-2.9-0.4H39.6c0-.8-1.6-0.2-2.2-0.4s-0.9-.3-1.5-0.4H33c0.1-.8-1.3-0.2-1.8-0.4s-1.8-.1-2.6-0.4H28.2c-0.3-1-1.3.7-1.8-.4H25.3c-0.3-.8-2.1-0.1-2.9-0.4H21.3c0.1-.9-1.7.2-1.1-1.1h3.7c0,0.8,1.6.2,2.2,0.4H29c0,0.8,1.6.2,2.2,0.4h2.6c0.2,0.8,1.8.2,2.6,0.4h2.9c0.2,0.8,1.8.1,2.6,0.4h2.9c0.3,0.8,2.1.1,2.9,0.4h3.3c0.2,0.8,1.8.1,2.6,0.4h3.7c0.4,0.8,2.3.1,3.3,0.4h3.7c0.4,0.8,2.3.1,3.3,0.4h4c0.5,0.8,2.6.1,3.7,0.4h4.4c0.6,0.8,2.8.1,4,.4h4.8c0.7,0.8,3,.1,4.4.4h5.1c0.9,0.8,3.3.1,4.8,0.4h5.9c1.1,0.8,3.8.1,5.5,0.4h6.2c1.4,0.8,4.3.1,6.2,0.4h7c1.5,0.8,4.5.1,6.6,0.4h7.7c1.7,0.9,5,.1,7.3.4h8.4c2.1,0.9,5.7.1,8.4,0.4h8.4a10.8,10.8,0,0,0,6.2,0,1,1,0,0,0,.7-1.1v-0.7a1.6,1.6,0,0,0,.7-1.5c0.5-.1.1-1.1,0.7-1.1s0.3-1.9.7-2.6,0.3-.7.4-1.1,0.2-1.6.4-2.2v-0.4c0.8,0,.2-1.6.4-2.2v-1.1c0.8-.2.1-1.8,0.4-2.6v-5.1a37.8,37.8,0,0,0,0-11.7v-1.8c0.8-.2.5,0.7,1.1,0.7v3.3c0.2,0.8-.5,2.4.4,2.6v19.4c-0.5.1-.3,0.9-0.4,1.5v1.1c-0.5.1-.3,0.9-0.4,1.5s-0.5,1.4-.4,2.6-0.5,1.2-.7,1.8a1.6,1.6,0,0,0-.7,1.5,2.3,2.3,0,0,0-.4.7,1.9,1.9,0,0,0-1.1,1.1c-0.5.2-1.9-.4-1.8,0.4H177c0.2,0.8-.5,2.4.4,2.6a0.6,0.6,0,0,0,.4.7v0.7c-0.1,1.1.1,1.9,0.7,2.2s0.4,0.8.4,1.5v0.4a1.8,1.8,0,0,0,.7,1.8,1.1,1.1,0,0,0,.7.7v0.7a4.9,4.9,0,0,0,1.8,2.9c0.4,0,.3.4,0.4,0.7a13.3,13.3,0,0,0,2.9,2.9h0.4c0.2,1.2,1.8,1.2,3.3,1.1,5-.2,11,0.5,15.4-0.4,0.6,0,1.4.2,1.5-.4h0.7c1.1,0.1,1.9-.1,2.2-0.7s1.4,0.2,1.5-.4,0.6-.3,1.1-0.4a1,1,0,0,0,1.1-.7,1.6,1.6,0,0,0,1.8-1.1,2.6,2.6,0,0,0,2.2-1.5c0.3,0.1.3-.1,0.4-0.4a2,2,0,0,0,1.8-1.8c0.3,0.1.3-.1,0.4-0.4s0.7-1,1.1-1.5a2.6,2.6,0,0,0,.7-1.1c0.4,0,.3-0.4.4-0.7a0.9,0.9,0,0,0,1.1-1.1,2.4,2.4,0,0,0,.4-0.7v-0.4c0.5-.3.5-1.2,0.7-1.8a4.6,4.6,0,0,0,1.5-2.6,3,3,0,0,0,.7-2.2c0.5-.3.5-1.2,0.7-1.8v-0.4a3,3,0,0,0,.7-2.2v-0.4c0.7-.2.1-1.9,1.5-1.5v2.9c-0.8-.1-0.2,1.3-0.4,1.8v0.7a3.7,3.7,0,0,0-.7,2.9,1.8,1.8,0,0,0-.7,1.8c0,0.7-.4.8-0.4,1.5a6.6,6.6,0,0,1-1.5,3.3,1.6,1.6,0,0,0-.7,1.5v0.4a1.5,1.5,0,0,0-1.1,1.5v0.4c-0.4,0-.3.4-0.4,0.7s-1.9,2.3-2.9,3.3-1.6,1.1-2.2,1.8-0.3.1-.4,0.4a30.3,30.3,0,0,0-4.4,2.6c0,0.4-.4.3-0.7,0.4a1.6,1.6,0,0,0-1.5.7h-0.4a1.8,1.8,0,0,0-1.8.7h-0.7c-0.5.2-1.9-.4-1.8,0.4H189.5c-0.6-.8-2.8-0.1-4-0.4s-0.7-1-1.5-1.1-0.1-.3-0.4-0.4a5.2,5.2,0,0,0-1.8-1.8,1.1,1.1,0,0,0-.7-0.7c-0.1-.5-0.6-0.6-0.7-1.1a1,1,0,0,0-.7-1.1c-0.4,0-.3-0.4-0.4-0.7s-0.6-2.1-1.5-2.6v-0.4a12.5,12.5,0,0,0-1.1-4c0-.5.1-1-0.4-1.1V287c-0.2-.6.4-2.2-0.4-2.2v-2.6H156.9c-4.4-.9-10.4-0.1-15.4-0.4H130.8c-1.8-.9-5.2-0.1-7.7-0.4h-6.2c-1-.8-3.5-0.1-5.1-0.4H107c-0.7-.8-3-0.1-4.4-0.4h-4c-0.4-.8-2.3-0.1-3.3-0.4h-4c-0.4-.8-2.3-0.1-3.3-0.4H85c-0.3-.8-2.1-0.1-2.9-0.4H79.2c-0.4-.5-4-1.1-3.3.7v0.7c-0.6.1-.8,0.6-0.7,1.5V283a1,1,0,0,0-.7,1.1,2.4,2.4,0,0,0-.4.7,1.6,1.6,0,0,0-.7,1.5,2.4,2.4,0,0,0-.4.7c-0.8.4-.9,1.6-1.5,2.2a1.9,1.9,0,0,0-1.1,1.1,5.1,5.1,0,0,0-1.8,1.8,1.8,1.8,0,0,0-1.1,1.1c-0.9.7-1.4,1.7-2.9,1.8a1,1,0,0,0-1.1.7c-0.7.2-1.5,0.2-1.8,0.7H60.8c-0.2.5-1.4,0.1-1.5,0.7s-1.5.2-1.8,0.7H40.7a18.7,18.7,0,0,1-5.1-.4,1.9,1.9,0,0,0-1.1-1.1,11.3,11.3,0,0,1-2.6-2.2H31.5a0.6,0.6,0,0,0-.4-0.7c0.1-.3-0.1-0.3-0.4-0.4a1,1,0,0,0-.7-1.1c-0.7-.2-0.2-1.7-1.1-1.8a8.3,8.3,0,0,0-.7-2.2,1.8,1.8,0,0,0-.7-1.8c-0.2-.5.4-1.9-0.4-1.8V283a3.1,3.1,0,0,0-2.2-.4H22.7c-0.1-.5-0.9-0.3-1.5-0.4s-1.4-1-2.9-.7-3.5-1.6-4.8-2.9a16.8,16.8,0,0,0-3.3-3.3c-0.7,0-.3-1.2-1.1-1.1A3.4,3.4,0,0,0,7.7,272v-0.4c-0.7-1.4-1.1-3-2.2-4s-0.4-.8-0.4-1.5a1,1,0,0,0-.7-1.1c0.1-.3-0.1-0.3-0.4-0.4s-0.6-1.1-.4-2.2,0.1-1-.4-1.1,0-2.2-.7-2.6V258c0-.6.2-1.4-0.4-1.5s0.1-1-.4-1.1,0.5-2.7-.4-2.9,0.2-1.4-.4-1.5v-2.2c0-.6.2-1.4-0.4-1.5v-1.8c-0.2-.5.4-1.9-0.4-1.8v-2.6c-0.2-1,.5-2.9-0.4-3.3V223.6c0.8-.5.1-2.6,0.4-3.7v-3.7c0.8,0,.2-1.6.4-2.2v-2.6c0.8,0,.2-1.6.4-2.2v-1.5a1.7,1.7,0,0,0,.4-1.1V206a1,1,0,0,0,.7-1.1,0.6,0.6,0,0,1,.4-0.7c0.6-.1.8-0.6,0.7-1.5s0.2-.7.7-0.7,1.7-1,1.8-2.2H6.2a5.2,5.2,0,0,0,1.8-1.8,46.3,46.3,0,0,1,4.8-2.9c0.5-.5,1.7-0.2,2.2-0.7a3,3,0,0,0,2.2-.7c-0.1-.3.1-0.3,0.4-0.4a3.1,3.1,0,0,0,2.2-.4,1.8,1.8,0,0,0,1.8-.7H22c0.6-.2,2.2.4,2.2-0.4s1,0.1,1.1-.4h2.6v-1.8c0.8-.3.1-2.1,0.4-2.9v-3.3c0.8,0.1.2-1.3,0.4-1.8s0.1-2.1.4-2.9,0.3-.7.4-1.1,0.3-.9.4-1.5a2.1,2.1,0,0,0,.4-1.5,3,3,0,0,1,.7-2.2,1.6,1.6,0,0,0,.7-1.5c0-.5-0.1-1,0.4-1.1s0.8-.6.7-1.5,0.5-2.2,1.8-2.2v-0.4c0.3,0.1.3-.1,0.4-0.4a7.5,7.5,0,0,0,2.2-2.2c0.3,0.1.3-.1,0.4-0.4s1-.2,1.1-0.7,0.3-.1.4-0.4,1,0.1,1.1-.4a1,1,0,0,0,1.1-.7c0.1-.4.7-0.2,0.7-0.7a15.6,15.6,0,0,0,3.3-2.2,1,1,0,0,0,1.1-.7,6,6,0,0,0,2.9-2.2,1.7,1.7,0,0,1,1.1-.4,1,1,0,0,0,1.1-.7,1.5,1.5,0,0,0,1.5-1.1c0.3,0.1.3-.1,0.4-0.4a7.7,7.7,0,0,0,3.3-2.2,1,1,0,0,0,1.1-.7,1,1,0,0,0,1.1-.7,1,1,0,0,0,1.1-.7,1,1,0,0,0,1.1-.7,1,1,0,0,0,1.1-.7c0.9-.2,1.9-0.3,1.8-1.5s0.6-.3,1.1-0.4a0.9,0.9,0,0,0,1.1-1.1c1,0.3.7-.7,1.5-0.7a1,1,0,0,0,1.1-.7,6.3,6.3,0,0,0,1.5-1.1h0.4a0.9,0.9,0,0,0,1.1-1.1v-0.7c0.4,0,.3-0.4.4-0.7s0.3-.9.4-1.5V136c0.8-.4.8-1.7,0.7-2.9s0.3-.4.4-0.7,0.3-.9.4-1.5,0.4-.8.4-1.5a46.5,46.5,0,0,0,1.8-7.7c0.4-.1.3-0.7,0.4-1.1s0.2-1.3.4-1.8a1.7,1.7,0,0,0,.4-1.1c0.5-.1.3-0.9,0.4-1.5a1.7,1.7,0,0,0,.4-1.1c0.8,0,.2-1.6.4-2.2s0.3-.4.4-0.7,0.2-1.3.4-1.8,0.3-.9.4-1.5v-0.7a1.6,1.6,0,0,0,.7-1.5c0.8,0.1.2-1.3,0.4-1.8s-0.1-1,.4-1.1,0.3-.9.4-1.5,0.5-.5.4-1.1,0.2-1.3.4-1.8,0.4-.6.4-1.1a9.4,9.4,0,0,0,1.1-4.4c0.1-.4.7-0.3,1.1-0.4v1.1c-0.8,0-.2,1.6-0.4,2.2s-0.7.8-.4,1.8-0.2,1.3-.4,1.8v0.7c-0.4.1-.3,0.7-0.4,1.1s-0.2,1.3-.4,1.8v0.7c-0.4.1-.3,0.7-0.4,1.1s-0.1,1.8-.4,2.6-0.3.7-.4,1.1-0.2,1.3-.4,1.8v0.7c-0.4.1-.3,0.7-0.4,1.1s-0.2,1.3-.4,1.8v0.7c-0.4.1-.3,0.7-0.4,1.1s-0.2,1.3-.4,1.8v0.7c-0.4.1-.3,0.7-0.4,1.1s-0.3.9-.4,1.5-0.5.9-.4,1.8-0.1,1.8-.4,2.6-0.3.7-.4,1.1a25.9,25.9,0,0,0-1.1,5.1c0.2,0.9-.7.8-0.4,1.8s-0.3.9-.4,1.5v0.7c-0.4.1-.3,0.7-0.4,1.1s-0.2,1.3-.4,1.8V140c-0.5.1-.3,0.9-0.4,1.5s-0.6.6-.7,1.1-1.4.3-1.5,1.1a1.1,1.1,0,0,0-.7.7,1,1,0,0,0-1.1.7c-0.3.3-1,.2-1.1,0.7a3.4,3.4,0,0,0-2.2,1.5l-7.7,5.1a0.9,0.9,0,0,0-1.1,1.1c-0.6-.1-0.6.3-1.1,0.4a1,1,0,0,0-1.1.7,25,25,0,0,1-2.9,2.2,85.9,85.9,0,0,0-11,7.3,12.2,12.2,0,0,0-4.4,2.9,3.3,3.3,0,0,0-1.5,1.5,1,1,0,0,0-.7,1.1c-0.8,1.5-1.9,2.8-2.2,4.8-0.8.1-.8,0.9-0.7,1.8v0.4c-0.4,0-.3.4-0.4,0.7s-0.3.4-.4,0.7-0.2,1.3-.4,1.8-0.3.7-.4,1.1-0.2,1.3-.4,1.8V184c-0.5.1-.3,0.9-0.4,1.5s-0.1,1.8-.4,2.6-0.3.9-.4,1.5v1.8c-0.8-.1-0.2,1.3-0.4,1.8v2.2c-0.8-.1-0.2,1.3-0.4,1.8v2.9c-0.8,0-.2,1.6-0.4,2.2v3.3c-0.8.2-.1,1.8-0.4,2.6H27.9v-15c0.2-.7-1.7-1.2-1.8-0.4s-1.9.1-2.2,0.7-1.4-.2-1.5.4a1.6,1.6,0,0,0-1.5.7,2.4,2.4,0,0,0-1.8.4c-0.8-.1-1.4.1-1.5,0.7s-2,.4-2.6,1.1-0.6.3-1.1,0.4a6.3,6.3,0,0,0-1.5,1.1v0.4H12.1a1,1,0,0,0-1.1.7,2.4,2.4,0,0,1-.7.4,1.1,1.1,0,0,0-.7.7H9.2A3.3,3.3,0,0,0,7.7,202v0.7a3.3,3.3,0,0,0-1.5,1.5,1,1,0,0,0-.7,1.1H5.1c0.2,0.9-.7.8-0.4,1.8v1.1H4.4c-0.4-1.1-.4,1-0.7,1.1s-0.4,1.3-.4,2.2-0.7,3.2-.7,5.1,1.8,0.1,2.6.4h7c0.1,0.5.9,0.3,1.5,0.4h3.3c2.9,0.6,5.1,1.8,8.4,1.8,0,0.8,1.6.2,2.2,0.4v-0.7h0.4c0-1,.2-2.2-0.7-2.2a0.6,0.6,0,0,0-.4-0.7,2.1,2.1,0,0,1-.4-1.5,1.6,1.6,0,0,0-.7-1.5,1.5,1.5,0,0,0-1.1-1.5v-0.4a1,1,0,0,0-.7-1.1c-0.5-.4-0.5-1.2-1.1-1.5a3.3,3.3,0,0,0-1.5-1.8v-0.4a1.1,1.1,0,0,0-.7-0.7,2.4,2.4,0,0,1-.4-0.7c0.5-.9,1.1,1.1,1.8,1.1a1.1,1.1,0,0,0,.7.7c0.3-.1.3,0.1,0.4,0.4a1.5,1.5,0,0,0,1.1,1.5c0.9,0.2.6,1.6,1.5,1.8a1,1,0,0,0,.7,1.1c-0.2.8,0.7,0.5,0.7,1.1v0.4a1,1,0,0,0,.7,1.1c0.8,0.1.5,1.5,1.1,1.8a1.6,1.6,0,0,0,.7,1.5c0,0.7.4,0.8,0.4,1.5v0.7c0,0.7,1,.5.7,1.5v0.7c-1.4.2-1.8-.7-3.3-0.4H26V221c1.8-.1-0.4-0.6-1.1-0.4s-0.8-.7-1.8-0.4-0.9-.3-1.5-0.4-0.6-.3-1.1-0.4a8,8,0,0,0-4-.7,10.8,10.8,0,0,0-6.2,0H8.4c0.1-.8-1.3-0.2-1.8-0.4H3.7c-0.5.1-.3,0.9-0.4,1.5V221c-0.6-.2-0.6,2,0,1.8v1.1c-0.1,1.6,0,3,1.5,2.9H5.9v0.4c0.4,0.8,2.3.1,3.3,0.4h2.9c0.9,0.8,3.3.1,4.8,0.4H96c4,0.9,9.7.1,14.3,0.4h13.2c2.7,0.9,7,.1,10.3.4h7.7c1.8,0.8,5.2.1,7.7,0.4h7.7c1.4,0.8,4.3.1,6.2,0.4h8.1c0.6-.2,2.2.4,2.2-0.4s1.4,0.2,1.5-.4h1.1c0.5-.2,1.9.4,1.8-0.4s0.6-.3,1.1-0.4,2.3-.1,1.1-0.4v-0.4c1.1,0.3,1.3-.4,2.2-0.4s1-.2,1.1-0.7,0.7-.7,1.5-0.7a1,1,0,0,0,1.1-.7c0.5-.1.6-0.6,1.1-0.7h0.4c1.3-1.2,2.9-2,3.3-4-0.1-.3.1-0.3,0.4-0.4s0.8-.6.7-1.5,0.8-.6.7-1.5a1.7,1.7,0,0,1,1.1-.4v1.1c0.3,1-.5.9-0.4,1.8a7,7,0,0,0-1.5,2.2c-0.1.5-.6,0.6-0.7,1.1a13.3,13.3,0,0,0-2.9,2.9c-0.7.1-.7,1-1.5,1.1a1272.5,1272.5,0,0,1-2.2,1.5,1,1,0,0,0-1.1.7h-0.4c-0.8-.1-1.4.1-1.5,0.7h-0.4a3.4,3.4,0,0,0-2.6,1.1h-0.7c-1-.3-1,0.5-1.8.4s-1.9-.4-1.8.4h-1.8c-0.6,0-1.4-.2-1.5.4H93.5c-3.2-.9-7.9-0.1-11.7-0.4H71.1c-2.1-.8-5.7-0.1-8.4-0.4H54.2c-1.7-.9-5-0.1-7.3-0.4H39.6c-1.6-.8-4.8-0.1-7-0.4H21.3c0-.8-1.6-0.2-2.2-0.4H12.8c0.1-.8-1.3-0.2-1.8-0.4H7.3c-0.1-.5-0.9-0.3-1.5-0.4a1,1,0,0,0-1.1-.7c-0.1-.4-0.7-0.3-1.1-0.4-0.6,1.5-.7,5.4,0,7v5.1c0.2,0.6-.4,2.2.4,2.2v2.6c0.2,0.6-.4,2.2.4,2.2s-0.4,1.9.4,1.8v1.5c0.2,0.8-.5,2.4.4,2.6s-0.1,1,.4,1.1,1.3,0.2,1.8.4,1.3,0.2,1.8.4,0.9,0.3,1.5.4h1.5c0.1,0.5.9,0.3,1.5,0.4h1.8c0.1,0.5.9,0.3,1.5,0.4h2.2c0.1,0.5.9,0.3,1.5,0.4h2.2c-0.1.8,1.3,0.2,1.8,0.4h2.6c0,0.8,1.6.2,2.2,0.4h2.6c0.2,0.8,1.8.1,2.6,0.4h2.9c0.2,0.8,1.8.1,2.6,0.4h3.3c0.4,0.8,2.3.1,3.3,0.4h3.7c0.4,0.8,2.3.1,3.3,0.4h5.1c0.9,0.8,3.3.1,4.8,0.4h6.2c1.7,0.9,5,.1,7.3.4H88c7.9,0.9,17.5.1,26,.4h5.9c10.6-.2,22.2.5,32.3-0.4H173c3.8-.2,8.6.5,11.7-0.4h4.4v0.7c-0.6,0-1.4-.2-1.5.4h-2.9c-0.8.2-2.4-.5-2.6,0.4h-2.9c-0.8.2-2.4-.5-2.6,0.4h-2.9c-0.8.2-2.4-.5-2.6,0.4h-3.7c-0.9.2-2.7-.5-2.9,0.4h-4c-1.1.2-3.2-.5-3.7,0.4h-4c-1.2.2-3.4-.5-4,0.4h-5.1c-1.5.2-3.9-.5-4.8,0.4h-6.2c-2.2.2-5.4-.5-7,0.4H86.1c-1.5-.8-4.5-0.1-6.6-0.4H73.7c-0.6-.8-2.8-0.1-4-0.4H65.2c-0.4-.8-2.3-0.1-3.3-0.4H58.3c0-.8-1.6-0.2-2.2-0.4H52.8c0-.8-1.6-0.2-2.2-0.4H48c0.1-.8-1.3-0.2-1.8-0.4H43.6c0.1-.8-1.3-0.2-1.8-0.4H39.6c-0.2-.8-1.8-0.1-2.6-0.4H36.3c-0.1-.5-0.9-0.3-1.5-0.4H33c-0.1-.5-0.9-0.3-1.5-0.4H29.7c-0.3-.8-2.1-0.1-2.9-0.4H25.7c0.1-.8-1.3-0.2-1.8-0.4s-1.8-.1-2.6-0.4H20.2c-0.1-.5-0.9-0.3-1.5-0.4s-1.8-.1-2.6-0.4H15.4c-0.1-.5-0.9-0.3-1.5-0.4s-1.6-.2-2.2-0.4H11c-0.1-.4-0.7-0.3-1.1-0.4s-1.6-.2-2.2-0.4-3.4.2-1.8,1.1c0,0.6-.2,1.4.4,1.5s0,2.2.7,2.6v0.4c-0.1,1.1.1,1.9,0.7,2.2s-0.2,1.4.4,1.5a1,1,0,0,0,.7,1.1,2.4,2.4,0,0,0,.4,1.5,4.3,4.3,0,0,0,1.5,2.9,1,1,0,0,0,.7,1.1V272a1,1,0,0,0,.7,1.1c0,1.1.8,1.4,1.5,1.8v0.4c0.7,0.8,1.2,2,2.6,2.2v0.4c0.7,0.2.7,1,1.8,0.7s2.5,1.9,4.8,1.8c0,0.4.4,0.3,0.7,0.4s0.4,0.3.7,0.4,3.8-.3,2.2-1.5V276c0.5-1.4.6-.1,1.1,0.4s-0.1,1,.4,1.1v0.7c0,0.6-.2,1.4.4,1.5V280c-0.3,1.6.9,1.6,2.2,1.5h0.4c0.6,1.3-1.2.2-1.1,1.1s-0.3,2.4.4,2.6v0.4a1,1,0,0,0,.7,1.1c-0.1.6,0.3,0.6,0.4,1.1a1,1,0,0,0,.7,1.1c-0.1.3,0.1,0.3,0.4,0.4a8.7,8.7,0,0,0,4.4,4.8c0.1,1.1,1.8.6,2.9,0.7h4c3.9-.2,8.8.5,12.1-0.4,0.5,0,1,.1,1.1-0.4s1.4,0.2,1.5-.4h0.4a2.4,2.4,0,0,0,1.5-.4,4.3,4.3,0,0,0,2.9-1.1,1.1,1.1,0,0,0,.7-0.7,1.6,1.6,0,0,0,1.5-.7,1.5,1.5,0,0,0,1.5-1.1c0.3,0.1.3-.1,0.4-0.4s0.7-.7,1.5-0.7A3.3,3.3,0,0,0,70,287C70,286.3,71,286.5,70.7,285.5Z"/><path class="m" d="M35.6,222.5a5.3,5.3,0,0,1-1.1-4c0.8-.7.1-3,0.4-4.4v-1.1c0.8-.3.1-2.1,0.4-2.9v-3.3c0.8-.3.1-2.1,0.4-2.9v-3.3c0.8-.3.1-2.1,0.4-2.9v-2.9c0.8-.2.1-1.8,0.4-2.6v-3.3c0.8-.2.1-1.8,0.4-2.6v-3.3c0.8-.2.1-1.8,0.4-2.6v-2.9c0.8,0,.2-1.6.4-2.2s0.1-1.1.7-1.1v8.4c-0.9,2.2-.1,6-0.4,8.8v7.3c-0.9,1.7-.1,5-0.4,7.3v7c-0.8,1.5-.1,4.5-0.4,6.6,1.5,0.8,4.5.2,6.6,0.4H59.7c4.2,0.9,9.9.1,14.7,0.4H85.8c2.9,0.9,7.5.1,11,.4h10.6a3.1,3.1,0,0,0,.4-2.2v-2.2c0.8,0,.2-1.6.4-2.2v-2.6c0.8,0,.2-1.6.4-2.2v-3.7c0.8-.4.1-2.3,0.4-3.3v-5.5a13.5,13.5,0,0,0,0-7v-3.7c-0.2-.6.4-2.2-0.4-2.2s0.2-1.4-.4-1.5v-1.1c-0.2-.6.4-2.2-0.4-2.2s0.1-1-.4-1.1v-0.4c0-.6.2-1.4-0.4-1.5a1,1,0,0,0-.7-1.1c-0.2-1-1.2-1.3-1.1-2.6h-0.7a1,1,0,0,0-1.1-.7c0.1-.8-1.3-0.2-1.8-0.4H99c-0.1-.5-0.9-0.3-1.5-0.4H94.6c-0.2-.8-1.8-0.1-2.6-0.4H89.1c-0.3-.8-2.1-0.1-2.9-0.4H81.4a59,59,0,0,0-14.7,0h-4c-0.8.2-2.4-.5-2.6,0.4H57.9c-0.5.2-1.9-.4-1.8,0.4s-1.9-.4-1.8.4H53.1c-0.8.2-2.4-.5-2.6,0.4s-1.4-.2-1.5.4H48.4c-0.6.2-2.2-.4-2.2,0.4H45.1c-0.1-.7.1-1.1,0.7-1.1s1.9,0.4,1.8-.4,1,0.1,1.1-.4h0.4c0.5-.2,1.9.4,1.8-0.4s1,0.1,1.1-.4,2.7,0.5,2.9-.4,1.4,0.2,1.5-.4H59c0.6,0,1.4.2,1.5-.4h1.8c0.5-.2,1.9.4,1.8-0.4h2.2c0.8-.2,2.4.5,2.6-0.4H93.1c0.5,0.8,2.6.1,3.7,0.4h3.7c0.3,0.8,2.1.1,2.9,0.4h1.5a1.7,1.7,0,0,1,1.1.4,1.1,1.1,0,0,0,.7.7,3.3,3.3,0,0,0,1.5,1.5,1.1,1.1,0,0,0,.7.7c0.3,1.3,1.1,2.1,1.5,3.3s-0.1,2,.7,2.2v0.4c0.2,0.6-.4,2.2.4,2.2s-0.2,1.4.4,1.5v2.9c0.2,0.5-.4,1.9.4,1.8v20.5c-0.8.3-.1,2.1-0.4,2.9v2.9c-0.8-.1-0.2,1.3-0.4,1.8v2.6c-0.8-.1-0.2,1.3-0.4,1.8V221c0,1.1,0,2.2-1.1,2.2v0.4c-0.1.4-.7,0.2-0.7,0.7H103c-1.5-.8-4.5-0.1-6.6-0.4H87.6c-1.8-.9-5.2-0.1-7.7-0.4H72.6c-1.1-.8-3.8-0.1-5.5-0.4h-7c-1.2-.8-4-0.1-5.9-0.4H47.6c-1.4-.8-4.3-0.1-6.2-0.4H35.6Z"/><path class="m" d="M120.2,206.3c-0.6.5-1.4,0.8-1.5,1.8s-0.4.1-.4,0.4H118a3.6,3.6,0,0,0-1.8,2.9c-0.7.1-.2,1.2-0.7,1.5s-0.3.7-.4,1.1-0.2.7-.7,0.7-0.4-1.6-.4-2.6,0.8-.6.7-1.5a2.1,2.1,0,0,0,.4-1.5c1,0.1,1.2-.5,1.1-1.5a1.5,1.5,0,0,0,1.1-1.5c0.2,0,.4-0.1.4-0.4s0.3-.1.4-0.4a7.5,7.5,0,0,0,2.2-2.2c1.2-.1,1.6-1.1,2.2-1.8a1.5,1.5,0,0,0,1.5-1.1c0.1-.5.8-0.4,1.1-0.7a1.5,1.5,0,0,0,1.5-1.1,3.1,3.1,0,0,0,2.6-1.5c0.8,0.1,1.4-.1,1.5-0.7s1.7,0.3,1.5-.7a4.3,4.3,0,0,0,2.9-1.5c0.5,0,.5-0.5,1.1-0.4a1,1,0,0,0,1.1-.7c0.7,0,.8-0.4,1.5-0.4a2.4,2.4,0,0,0,1.5-.4,1.6,1.6,0,0,0,1.5-.7,1,1,0,0,0,1.1-.7,6,6,0,0,0,2.6-.7h0.4c0.7,0,.8-0.4,1.5-0.4s3.4-.6,4.4-1.5h0.4c1.1,0.1,1.9-.1,2.2-0.7h0.7c0.6,0,1.4.2,1.5-.4s1,0.1,1.1-.4,2.2,0.4,2.2-.4,1,0.1,1.1-.4h0.7c0.5-.2,1.9.4,1.8-0.4s1,0.1,1.1-.4h0.7c0.6-.2,2.2.4,2.2-0.4s1,0.1,1.1-.4h1.1c0.6-.2,2.2.4,2.2-0.4s1.4,0.2,1.5-.4h2.6c0.6,0,1.4.2,1.5-.4h1.5c0.6,0,1.4.2,1.5-.4h1.5c0.5-.2,1.9.4,1.8-0.4h2.6c0.6-.2,2.2.4,2.2-0.4h18c0.1,0.5.9,0.3,1.5,0.4h1.8c0,0.8,1.6.2,2.2,0.4h0.7c0.1,0.4.7,0.3,1.1,0.4s0.9,0.3,1.5.4,0.8,0.4,1.5.4,1.3,0.2,1.8.4a2.4,2.4,0,0,0,1.5.4,1,1,0,0,0,1.1.7c1.3,0.4,2.2,1.2,3.7,1.5s0.4,0.1.4,0.4,0.6,0.8,1.5.7h0.4a1.5,1.5,0,0,0,1.5,1.1,1,1,0,0,0,1.1.7c0.2,0,.4.1,0.4,0.4s0.8,1.4,1.8,1.5,0.1,0.3.4,0.4a10.1,10.1,0,0,0,2.6,2.6c-0.1.3,0.1,0.3,0.4,0.4s2.5,1.9.7,2.6l-1.1-1.1a5.2,5.2,0,0,0-1.8-1.8,2.4,2.4,0,0,0-.7-0.4,2.6,2.6,0,0,0-2.2-1.5,1,1,0,0,0-1.1-.7,1.5,1.5,0,0,0-1.5-1.1c-0.9-.3-1.4-1-2.6-1.1a1.6,1.6,0,0,0-1.5-.7h-0.4a1,1,0,0,0-1.1-.7c-0.1-.5-0.9-0.3-1.5-0.4a0.6,0.6,0,0,1-.7-0.4c1.2-.3-0.7-0.5-1.1-0.4h-0.4c0-.4-0.4-0.3-0.7-0.4s-0.9-.3-1.5-0.4h-0.7c-0.1-.4-0.7-0.3-1.1-0.4s-1.8-.1-2.6-0.4-1.8-.1-2.6-0.4h-0.4c0-.8-1.6-0.2-2.2-0.4H195.7c-1,.2-2.9-0.5-3.3.4h-2.6c-0.5.2-1.9-.4-1.8,0.4h-2.2c-0.5.2-1.9-.4-1.8,0.4h-1.8c-0.5.2-1.9-.4-1.8,0.4s-2.4-.5-2.6.4-1.9-.4-1.8.4h-1.1c-0.6.2-2.2-.4-2.2,0.4s-1.4-.2-1.5.4-2.9-.5-3.3.4-1-.1-1.1.4H166c-0.6.2-2.2-.4-2.2,0.4s-1-.1-1.1.4H162a25.8,25.8,0,0,0-5.1,1.1c-0.5,0-1-.1-1.1.4s-2.2-.4-2.2.4-0.8.4-1.5,0.4-1.9.1-2.2,0.7-1.7.3-2.6,0.4-2.1.4-2.6,1.1-1.4-.2-1.5.4a33.9,33.9,0,0,1-4.4,1.5,1,1,0,0,0-1.1.7c-0.5.1-1.4-.1-1.5,0.4s-2.7.4-1.8,0.7-0.7.3-1.1,0.4a5.4,5.4,0,0,0-3.7,1.8c-0.8-.1-1.4.1-1.5,0.7s-0.1.4-.4,0.4-0.7.7-1.5,0.7a1,1,0,0,0-1.1.7,2.6,2.6,0,0,0-1.1.7,1,1,0,0,0-1.1.7h-0.4a1.5,1.5,0,0,0-1.5,1.1,1.1,1.1,0,0,0-.7.7C120.7,206.3,120.4,206.3,120.2,206.3Z"/><path class="m" d="M191.7,202a5.3,5.3,0,0,0-2.6,1.8,4.7,4.7,0,0,0-2.9,2.9,1.1,1.1,0,0,0-.7.7,1.5,1.5,0,0,0-1.1,1.5,1,1,0,0,0-.7,1.1c-0.6.1-.8,0.6-0.7,1.5s-0.1.4-.4,0.4a1.6,1.6,0,0,0-.7,1.5v0.4c-0.4.1-.2,0.7-0.7,0.7a3,3,0,0,0-.7,2.2c-0.6.2,0,1.7-.7,1.8s-0.4,1-.4,1.5-0.3.4-.4,0.7-0.2,1.3-.4,1.8-0.2,1.5-.7,1.8-2.2-.4-2.2.4h-4a5,5,0,0,0-2.9-.7h-0.7c-0.2-.8-1.8-0.1-2.6-0.4s-1.8-.1-2.6-0.4-2.1-.1-2.9-0.4-1.3-.2-1.8-0.4H155c-1-.8-3.5-0.1-5.1-0.4h-6.2c-2.3.2-5.6-.5-7.3,0.4h-2.2c-1.5.2-3.9-.5-4.8,0.4h-1.1c-0.8.2-2.4-.5-2.6,0.4h-1.1c-1.2.2-2.7,0.3-3.3,1.1h-0.7c-0.9.2-2.7-.5-2.9,0.4a4.8,4.8,0,0,0-2.6.7c-0.3-.1-0.3.1-0.4,0.4h-1.1c-2.2-.9.2-2.4-0.4-3.3s1.3-.7,1.1-1.8c1.4-.9,2-2.6,2.9-4a1.5,1.5,0,0,0,1.1-1.5c0.3,0.1.3-.1,0.4-0.4a34.9,34.9,0,0,0,4.8-4.8c-0.1-.8,1.1-0.4,1.1-1.1s2.2-1.7,3.3-2.6,1.9-.3,1.8-1.5h0.4a1,1,0,0,0,1.1-.7c0.7,0.1.7-.5,1.1-0.7s0.6-.3,1.1-0.4a1.6,1.6,0,0,0,1.5-.7,3,3,0,0,0,1.8-1.1l1.5-.7c0.6,0.1.6-.3,1.1-0.4a1,1,0,0,0,1.1-.7,27.5,27.5,0,0,1,4-1.5c1.2,0.2,1.4-.5,2.2-0.7s3.1-.6,4-1.5H151c1.1,0.1,1.9-.1,2.2-0.7h0.7c0.6,0,1.4.2,1.5-.4s1,0.1,1.1-.4h0.4c0.5-.2,1.9.4,1.8-0.4s1.4,0.2,1.5-.4h0.7c0.6-.2,2.2.4,2.2-0.4s1.4,0.2,1.5-.4h2.9c0.5-.2,1.9.4,1.8-0.4h2.9c0.6-.2,2.2.4,2.2-0.4h8.1c0.2,0.8,1.8.1,2.6,0.4H188c-0.1.8,1.3,0.2,1.8,0.4h2.9c0.1,0.5.9,0.3,1.5,0.4s1.6,0.2,2.2.4,2.3-.1,2.6.7,0.4,3.3-.7,3.7a1,1,0,0,0-1.1.7h-0.4a1,1,0,0,0-1.1.7v0.4h-1.1a1,1,0,0,0-1.1.7v0.4h-0.4A1.5,1.5,0,0,0,191.7,202ZM173,195.4h-2.6c-0.5.1-1.4-.1-1.5,0.4s-2.9-.5-3.3.4-1.9-.4-1.8.4h-0.7c-0.6.2-2.2-.4-2.2,0.4s-1-.1-1.1.4-2.4-.5-2.6.4-0.9.5-1.8,0.4-1.4-.1-1.5.4-1-.1-1.1.4h-0.4c-0.5.1-1.4-.1-1.5,0.4s-1-.1-1.1.4-1.4-.1-1.5.4-1.4.1-1.5,0.7-1.1.6-2.2,0.4-1.4.1-1.5,0.7a14.2,14.2,0,0,0-3.3,1.1,1,1,0,0,0-1.1.7,5.2,5.2,0,0,0-3.7,1.8c-1.8,0-2.4,1-3.7,1.5a1,1,0,0,0-1.1.7c-0.2,0-.4.1-0.4,0.4h-0.4a1,1,0,0,0-1.1.7c-0.2,0-.4.1-0.4,0.4a1,1,0,0,0-1.1.7,4.7,4.7,0,0,0-1.8,1.5,1,1,0,0,0-1.1.7c0,0.2-.1.4-0.4,0.4s-1.4.3-1.5,1.1-2.3,1.8-2.9,3.3a1.1,1.1,0,0,0-.7.7c-0.1.7-1,.7-1.1,1.5a3.4,3.4,0,0,0-1.5,2.2h-0.4c0,0.5-.5.5-0.4,1.1s-0.3.9-.4,1.5,1.9,0.4,1.8-.4h1.5c0.5-.1,1.4.1,1.5-0.4h1.8c0.5-.1,1.4.1,1.5-0.4s1.9,0.4,1.8-.4h3.7c0.5-.2,1.9.4,1.8-0.4h2.9c0.5-.2,1.9.4,1.8-0.4h2.9c0.8-.2,2.4.5,2.6-0.4h8.8c1-.2,2.9.5,3.3-0.4h1.8c0,0.6,2.5.6,2.6,0h1.5c-0.2.6,2,.6,1.8,0h1.1c1.5,0.8,4.5.1,6.6,0.4s4.8,0.9,4.8-1.1a1.7,1.7,0,0,1,.4-1.1h0.4a2.4,2.4,0,0,0,.4-1.5v-0.7c0.5,0,.3-0.6.7-0.7a1,1,0,0,0,.7-1.1c0.1-.3,0-0.7.4-0.7a4.6,4.6,0,0,0,1.5-2.6c0.2,0,.4-0.1.4-0.4h0.4c0.2-.5.5-0.9,0.7-1.5s0.4-.1.4-0.4a13.3,13.3,0,0,0,2.9-2.9V206c0.7-1.2,2.2-1.7,2.9-2.9a1,1,0,0,0,1.1-.7l1.1-1.1c0.4,0,.9-0.1.7-0.7s1.2-1,2.2-1.1a1,1,0,0,0,1.1-.7c0-.6,1-0.2,1.1-0.7s1.8-.9,2.9-1.1-0.2-2-1.5-1.5H191c0-.8-1.6-0.2-2.2-0.4H174.8C174.3,195.2,172.9,194.6,173,195.4Z"/><path class="m" d="M18,202c-0.1.6-4.1-2.5-1.5-1.5,0.2,0,.4.1,0.4,0.4A1.9,1.9,0,0,0,18,202Z"/><path class="m" d="M316.7,212.6a7,7,0,0,0,2.2,2.6,0.6,0.6,0,0,0,.4.7c0.1,0.5.9,0.3,1.5,0.4s3.5,0.1,5.1.4h5.5c1,0.8,3.5.1,5.1,0.4s2.2,0.4,2.2-.4a2.4,2.4,0,0,0,.4-0.7h0.7a5.2,5.2,0,0,0,1.8-1.8c0.3,0.1.3-.1,0.4-0.4s0.4-.8,1.1-0.7a3.3,3.3,0,0,0,1.5-1.5,6.9,6.9,0,0,1,2.9-.4h0.7c0.9,0.8,3.3.1,4.8,0.4h5.1c0.7,0.8,3,.1,4.4.4h4.4c0.5,0.8,2.6.1,3.7,0.4h4.8c0.5,0.8,2.6.1,3.7,0.4h1.5v0.7c-2.3.2-5.6-.5-7.3,0.4H358.5c-6.4.1-14.2-1.2-15.8,3.7-0.3-.1-0.3.1-0.4,0.4a12.4,12.4,0,0,0-1.8,1.8c-0.2,0-.4.1-0.4,0.4H321.1c-0.3-.8-2.1-0.1-2.9-0.4h-0.7c-1.7-1.2-2.5-3.1-4-4.4s-1.4-1.3-1.8-2.2a1,1,0,0,0-.7-1.1,2.4,2.4,0,0,0-.7-0.4v-0.7H287.3c-3.8-.9-9.2-0.1-13.6-0.4h-9.9c-2.1-.9-5.7-0.1-8.4-0.4h-7.3c-1.2-.8-4-0.1-5.9-0.4H236c-0.6-.8-2.8-0.1-4-0.4v-0.7h2.6c1.8-.2,4.6.5,5.9-0.4h6.2c2.2-.2,5.4.5,7-0.4h8.4c2.6-.2,6.1.5,8.1-0.4h14.3c10,1.3,27.2-3.3,30.8,3.7a1.9,1.9,0,0,0,1.1,1.1C316.5,212.2,316.7,212.3,316.7,212.6Z"/><path class="m" d="M232.7,267.6h-0.4c0,0.6-.2,1.4.4,1.5s0.9,0.3,1.5.4,1.6,0.2,2.2.4H239c0,0.8,1.6.2,2.2,0.4h2.9c0,0.8,1.6.2,2.2,0.4h2.9c0,0.8,1.6.2,2.2,0.4h1.8c0.9-.2,2.7.5,2.9-0.4h0.7c0.6-.2,2.2.4,2.2-0.4s1.4,0.2,1.5-.4h1.1c0.6-.2,2.2.4,2.2-0.4s1,0.1,1.1-.4h1.1c0.6-.2,2.2.4,2.2-0.4s1.4,0.2,1.5-.4h0.7c0.8-.2,2.4.5,2.6-0.4s1,0.1,1.1-.4,2.9,0.5,3.3-.4,1.4,0.2,1.5-.4h0.7c0.6-.2,2.2.4,2.2-0.4s1.4,0.2,1.5-.4h1.1c0.6-.2,2.2.4,2.2-0.4s1.4,0.2,1.5-.4h1.1c0.6-.2,2.2.4,2.2-0.4s1.4,0.2,1.5-.4h1.1c0.6-.2,2.2.4,2.2-0.4s1.4,0.2,1.5-.4h1.1c0.6-.2,2.2.4,2.2-0.4s1.4,0.2,1.5-.4,2.9,0.5,3.3-.4,1.4,0.2,1.5-.4h1.1c0.8-.2,2.4.5,2.6-0.4s1,0.1,1.1-.4H313c0.8-.2,2.4.5,2.6-0.4s1.4,0.2,1.5-.4h1.1c0.6-.2,2.2.4,2.2-0.4s1.4,0.2,1.5-.4h1.1c0.8-.2,2.4.5,2.6-0.4s1.4,0.2,1.5-.4H328c0.8-.2,2.4.5,2.6-0.4s1.4,0.2,1.5-.4h0.7c0.8-.2,2.4.5,2.6-0.4s1.4,0.2,1.5-.4h1.1c0.8-.2,2.4.5,2.6-0.4s1.4,0.2,1.5-.4h1.1c0.5-.2,1.9.4,1.8-0.4s0.6-.3,1.1-0.4a2.4,2.4,0,0,0-.4-1.5c0.1-.8-0.1-1.4-0.7-1.5s0.2-1.4-.4-1.5-0.4-.8-0.4-1.5,0.5-2.4-.4-2.6v-4.8c0.8-.2.1-1.8,0.4-2.6v-1.5c-0.1-.3.1-0.3,0.4-0.4s0.8-1.7.7-2.6,1.3-3.1,1.8-4.8c0.6-.1.8-0.6,0.7-1.5a0.6,0.6,0,0,1,.4-0.7,1.6,1.6,0,0,0,.7-1.5v-0.4a0.8,0.8,0,0,1,1.5.7c-0.4,0-.3.4-0.4,0.7s-0.8.6-.7,1.5v0.7a1,1,0,0,0-.7,1.1c-0.6.1-.8,0.6-0.7,1.5a1.7,1.7,0,0,0-.4,1.1,8,8,0,0,0-1.1,4.4c-0.4.1-.3,0.7-0.4,1.1s-0.1,1.8-.4,2.6v0.4c-0.6,0-.6,2.5,0,2.6v0.4c0.2,0.8-.5,2.4.4,2.6s-0.1,1,.4,1.1a0.6,0.6,0,0,0,.4.7v0.4c-0.1,1.1.1,1.9,0.7,2.2s0.2,1,.7,1.1,0.2,1,.7,1.1,0.7,4-1.5,3.7c-0.6,0-1.4-.2-1.5.4h-0.7c-0.6,0-1.4-.2-1.5.4h-0.7c-0.6,0-1.4-.2-1.5.4h-0.4c-0.6,0-1.4-.2-1.5.4s-1-.1-1.1.4h-1.8c-0.6,0-1.4-.2-1.5.4a0.6,0.6,0,0,0-.7.4h-1.8c-0.6,0-1.4-.2-1.5.4h-0.7c-0.6,0-1.4-.2-1.5.4h-0.7c-0.6,0-1.4-.2-1.5.4a0.6,0.6,0,0,0-.7.4h-1.1c-0.8.2-2.4-.5-2.6,0.4s-1.4-.2-1.5.4h-0.7c-0.6.2-2.2-.4-2.2,0.4s-2.2-.2-2.2.7,0.2,1.5.7,1.8a1.6,1.6,0,0,0,.7,1.5c-0.1.3,0.1,0.3,0.4,0.4s0.8,1.4,1.5,1.8a2.3,2.3,0,0,0,.7.4c-0.1.3,0.1,0.3,0.4,0.4s0.4,0.3.7,0.4,2.3,0.6,2.2,0h7c4.9,0.9,11.4.1,16.9,0.4H350c1,0.8,3.5.1,5.1,0.4s4.9,0.5,6.2-.4,0.3-.1.4-0.4,0.3-1.2,1.5-.7,1.7-1.2,2.2-1.8a1.7,1.7,0,0,0,.4-1.1,3.5,3.5,0,0,0,1.1-2.9h0.4c0.8,0.1.2-1.3,0.4-1.8s0.3-.1.4-0.4a3,3,0,0,0,.7-2.2v-0.7c0.5-.1.3-0.9,0.4-1.5s0.3-.4.4-0.7,0.3-.9.4-1.5v-0.7c0.5-.1.3-0.9,0.4-1.5v-1.5c0.8,0,.2-1.6.4-2.2v-1.1c0.8,0,.2-1.6.4-2.2v-2.9c1.3-.8-0.7-4.9,1.1-5.1s0.1,1.8.4,2.6-0.5,2.7.4,2.9v10.3c-0.8.2-.1,1.8-0.4,2.6v1.5c-0.5.1-.3,0.9-0.4,1.5s-0.4,1.8-.4,2.9v0.7a3,3,0,0,0-.7,2.2v0.4a1.6,1.6,0,0,0-.7,1.5v0.4a1.5,1.5,0,0,0-1.1,1.5,2.4,2.4,0,0,0-.4.7c-0.5.1-.1,1.1-0.7,1.1a10.2,10.2,0,0,0-2.6,2.6,1,1,0,0,0-1.1.7,2.4,2.4,0,0,1-.7.4c-0.6-.1-0.6.3-1.1,0.4s-1.4-.2-1.5.4h-5.1c-0.9-.8-3.3-0.1-4.8-0.4h-4c-0.4-.8-2.3-0.1-3.3-0.4h-4c-0.3-.8-2.1-0.1-2.9-0.4h-2.6c-0.2-.8-1.8-0.1-2.6-0.4h-2.9c-0.2-.8-1.8-0.1-2.6-0.4h-2.9c0-.8-1.6-0.2-2.2-0.4h-1.5a1.1,1.1,0,0,0-.7-0.7,7.4,7.4,0,0,0-2.2-2.2,1,1,0,0,0-.7-1.1c-0.3-.3-0.2-1-0.7-1.1a2.4,2.4,0,0,1-.4-0.7v-1.1c-0.2-.5.4-1.9-0.4-1.8s-2.7-.5-2.9.4-2.2-.4-2.2.4-1-.1-1.1.4h-0.7c-0.6.2-2.2-.4-2.2,0.4s-1.4-.2-1.5.4h-0.7c-0.6.2-2.2-.4-2.2,0.4s-1.4-.2-1.5.4h-0.7c-0.6.2-2.2-.4-2.2,0.4s-1.4-.2-1.5.4h-0.7c-0.6.2-2.2-.4-2.2,0.4s-2.4-.5-2.6.4-2.2-.4-2.2.4-1-.1-1.1.4h-1.1c-0.6.2-2.2-.4-2.2,0.4s-1-.1-1.1.4h-1.1c-0.6.2-2.2-.4-2.2,0.4s-1-.1-1.1.4h-1.1c-0.8.2-2.4-.5-2.6,0.4s-1-.1-1.1.4-2.9-.5-3.3.4-1.4-.2-1.5.4h-0.7c-0.8.2-2.4-.5-2.6,0.4s-1-.1-1.1.4h-1.1c-0.6.2-2.2-.4-2.2,0.4s-1.4-.2-1.5.4h-1.1c-0.6.2-2.2-.4-2.2,0.4h-2.6c-0.1-.5-0.9-0.3-1.5-0.4h-2.2c0.1-.8-1.3-0.2-1.8-0.4h-2.6c0.1-.8-1.3-0.2-1.8-0.4h-2.2c0.1-.8-1.3-0.2-1.8-0.4h-2.2c0-.8-1.6-0.2-2.2-0.4h-2.2c-0.1-.5-0.9-0.3-1.5-0.4s-1.8-.8-2.6-1.5-0.3-.4-0.4-0.7,0.8-1.1.7-2.2,0-1.9.7-2.2a1.8,1.8,0,0,0,.7-1.8v-0.4a3,3,0,0,0,.7-2.2V261a4.8,4.8,0,0,0,.7-2.6v-0.7c0.5-.1.3-0.9,0.4-1.5s0.3-.7.4-1.1,0.2-1.3.4-1.8v-1.1c0.5-.1.3-0.9,0.4-1.5v-1.5a29,29,0,0,0,0-10.3v-2.6c0-.6.2-1.4-0.4-1.5v-0.4c-0.2-.8.5-2.4-0.4-2.6s0.2-1.4-.4-1.5v-0.7c-0.2-.6.4-2.2-0.4-2.2s0.1-1-.4-1.1v-0.4c0.1-1.2,0-2.2-.7-2.6v-0.4c0-.6.2-1.4-0.4-1.5a1,1,0,0,0-.7-1.1c0.3-1-.5-0.9-0.4-1.8s-0.1-1.4-.7-1.5-0.1-.3-0.4-0.4v-1.1a2.6,2.6,0,0,0-1.5-2.2c0.1-.7-0.5-0.7-0.7-1.1a2.6,2.6,0,0,0-1.8-1.8c0.1-.3-0.1-0.3-0.4-0.4s-0.4-.3-0.7-0.4-0.9-.3-0.7-1.1h1.8a1,1,0,0,0,1.1.7c-0.1.3,0.1,0.3,0.4,0.4a7.4,7.4,0,0,0,2.2,2.2c0.2,0,.4.1,0.4,0.4a1,1,0,0,0,.7,1.1V214a2,2,0,0,0,1.1,1.8,0.6,0.6,0,0,1,.4.7,1,1,0,0,0,.7,1.1v0.7a1,1,0,0,0,.7,1.1c0.1,0.5-.1,1.4.4,1.5s-0.2,1.4.4,1.5,0,0.7.4,0.7a5.3,5.3,0,0,0,.7,3.3c0,0.6-.2,1.4.4,1.5a2.4,2.4,0,0,0,.4,1.5c0.2,0.6-.4,2.2.4,2.2v0.7c-0.2.8,2,1.1,2.2,0.4s1.4,0.2,1.5-.4h2.6c0.6,0,1.4.2,1.5-.4s1.9,0.4,1.8-.4h2.6c0.6,0,1.4.2,1.5-.4h1.5c0.6,0,1.4.2,1.5-.4h1.5c0.6,0,1.4.2,1.5-.4h1.8c0.6,0,1.4.2,1.5-.4h1.5c0.6,0,1.4.2,1.5-.4h1.8c0.6,0,1.4.2,1.5-.4h1.8c0.6,0,1.4.2,1.5-.4H269c0.6,0,1.4.2,1.5-.4h1.8c0.5-.2,1.9.4,1.8-0.4h2.2c0.6,0,1.4.2,1.5-.4H280c0.5-.2,1.9.4,1.8-0.4H284c0.5-.2,1.9.4,1.8-0.4h2.6c0.6-.2,2.2.4,2.2-0.4h2.6c0.6-.2,2.2.4,2.2-0.4H298c0.8-.2,2.4.5,2.6-0.4h2.9c0.9-.2,2.7.5,2.9-0.4h2.9c0.9-.2,2.7.5,2.9-0.4h3.7c0.9-.2,2.7.5,2.9-0.4h4.4c1.4-.2,3.7.5,4.4-0.4h5.9c2-.2,4.9.5,6.2-0.4h7c1.5-.2,3.9.5,4.8-0.4h0.7c0.7,1.8-1.7.5-1.8,1.5h-1.5c-0.8.2-2.4-.5-2.6,0.4h-2.2c-0.5.2-1.9-.4-1.8,0.4h-2.2c-0.6,0-1.4-.2-1.5.4h-1.8c-0.5.2-1.9-.4-1.8,0.4h-2.6c-0.6,0-1.4-.2-1.5.4h-1.8c-0.6.2-2.2-.4-2.2,0.4h-2.2c-0.5.2-1.9-.4-1.8,0.4h-2.2c-0.5.2-1.9-.4-1.8,0.4h-2.2c-0.5.2-1.9-.4-1.8,0.4h-2.2c-0.6.2-2.2-.4-2.2,0.4h-2.2c-0.6.2-2.2-.4-2.2,0.4h-2.2c-0.6.2-2.2-.4-2.2,0.4h-2.6c-0.5.2-1.9-.4-1.8,0.4h-2.6c-0.6.2-2.2-.4-2.2,0.4h-2.9c-0.5.2-1.9-.4-1.8,0.4h-2.9c-0.6.2-2.2-.4-2.2,0.4h-2.9c-0.8.2-2.4-.5-2.6,0.4h-2.6c-0.8.2-2.4-.5-2.6,0.4H269c-0.9.2-2.7-.5-2.9,0.4h-2.9c-0.9.2-2.7-.5-2.9,0.4h-3.3c-0.9.2-2.7-.5-2.9,0.4h-3.3c-1,.2-2.9-0.5-3.3.4h-3.7c-1,.2-2.9-0.5-3.3.4h-5.1c-0.3.3-.8,2,0,2.2v1.8c0,0.6-.2,1.4.4,1.5v13.9c-0.5.1-.3,0.9-0.4,1.5v1.5c-0.8.2-.1,1.8-0.4,2.6v0.7c-0.4.1-.3,0.7-0.4,1.1s-0.3.9-.4,1.5-0.2,1.3-.4,1.8-0.8,1.8-.7,3.3C232.8,267.1,232.8,267.3,232.7,267.6Z"/><path class="m" d="M383,226.9c1-.4,1.2-1.5,1.8-2.2h0.4c0.6,0.1.6-.3,1.1-0.4h2.9c0.8,0.6,1.4,1.3,2.2,1.8a877.7,877.7,0,0,0,1.5,2.2v0.7a1,1,0,0,0,.7,1.1v0.7c-0.3,1,.5.9,0.4,1.8s-0.2,1.4.4,1.5v0.7c0,0.6-.2,1.4.4,1.5v0.7c0.2,1-.5,2.9.4,3.3v5.5c-0.8.3-.1,2.1-0.4,2.9s-0.6,2.1-.4,3.7v0.7a3,3,0,0,0-.7,2.2v0.4c-0.5.3-.5,1.2-0.7,1.8a1.6,1.6,0,0,0-.7,1.5,1.1,1.1,0,0,0-.7.7h-0.4c-0.2.5-.5,0.9-0.7,1.5s-0.3,1.2-1.5.7c-3.1.5-4.1-1-5.5-2.2a1,1,0,0,0-.7-1.1v-0.4a1,1,0,0,0-.7-1.1,2.4,2.4,0,0,0-.4-0.7,2.4,2.4,0,0,1-.4-1.8c0.3-1.1-.6-1.1-0.4-2.2s0.4-1.9-.4-1.8v-1.1c-0.2-.6.4-2.2-0.4-2.2v-8.8c0.8,0.1.2-1.3,0.4-1.8v-1.1c0.5-.1.3-0.9,0.4-1.5s0.5-1.4.4-2.6v-0.4c0.5-.3.5-1.2,0.7-1.8s0.5-1.4.7-2.2S382.7,226.8,383,226.9Zm4,1.1c-0.5.1-.4,0.8-0.7,1.1a2.4,2.4,0,0,1-.4.7c-0.6.1-.8,0.6-0.7,1.5a2.4,2.4,0,0,0-.4,1.5,2.4,2.4,0,0,0-.4,1.8c-0.4.1-.4,0.6-0.4,1.1s-0.2,1.6-.4,2.2v0.4c-0.8,0-.2,1.6-0.4,2.2v5.5c0.2,0.6-.4,2.2.4,2.2v1.1c0.1,0.5-.1,1.4.4,1.5s-0.4,1.9.4,1.8a4.4,4.4,0,0,0,1.1,3.3,1.1,1.1,0,0,0,.7.7v0.7c-0.2.8,1.1,2,1.5,1.1s0.6-.6.7-1.1,0.3-.6.7-0.7,0.3-.9.4-1.5,0-.7.4-0.7,0.5-.7.4-1.1a9.2,9.2,0,0,0,.4-3.7h0.4c0.3,1.2.5-.7,0.4-1.1v-1.8a13.5,13.5,0,0,0,0-7V239c-0.2-.8.5-2.4-0.4-2.6s0.4-2.2-.4-2.2,0.1-1.4-.4-1.5,0-.7-0.4-0.7a2.1,2.1,0,0,0-.4-1.5,1,1,0,0,0-.7-1.1v-0.4C389.1,228.1,387.6,227,387,228Z"/><path class="m" d="M365,259.9c-1.2.9-1.5,2.6-2.9,3.3s-1.6.6-2.9,0.4-1.1-.6-1.8-0.7a3.3,3.3,0,0,0-1.5-1.5l-1.8-3.3a4.1,4.1,0,0,1-.7-2.9c0.1-1.2-.6-1.6-0.4-2.9s0.4-1.9-.4-1.8V239c0.8,0.1.2-1.3,0.4-1.8v-1.8c0.5-.1.3-0.9,0.4-1.5v-0.4a18.4,18.4,0,0,0,1.5-3.7v-0.4c0.7-.5.5-1.9,1.5-2.2-0.9,1.6,1.2-.5,1.5-1.1a2.4,2.4,0,0,1,.7-0.4H361c0.6-.1.6,0.3,1.1,0.4s1.5,2.2,1.8,1.5a0.6,0.6,0,0,1,.4.7,1,1,0,0,0,.7,1.1v0.4a18.4,18.4,0,0,0,1.5,3.7v0.4c0,0.6-.2,1.4.4,1.5v1.8c0.2,0.5-.4,1.9.4,1.8v11.4c-0.8-.1-0.2,1.3-0.4,1.8v1.5a2.1,2.1,0,0,0-.4,1.5v0.7c-0.5.3-.5,1.2-0.7,1.8V258a1.6,1.6,0,0,0-.7,1.5v0.4Zm-4.4-30.1c0.3-.6-1.7-0.6-1.5,0h-0.4c0.1,1.1-.8,1.1-0.7,2.2h-0.4a2.4,2.4,0,0,0-.4,1.5v0.7H357c0.3,1.4-.6,1.6-0.4,2.9s-0.3.9-.4,1.5-0.2,1.3-.4,1.8v8.1c0.2,0.6-.4,2.2.4,2.2s-0.1,1.4.4,1.5-0.1,1.4.4,1.5V254a3,3,0,0,0,.7,2.2c0.1,0.4-.1,1,0.4,1.1a1.7,1.7,0,0,0,.4,1.1c-0.4,1.1,2.1,2.4,2.2.7,0.2,0,.4-0.1.4-0.4a1,1,0,0,0,.7-1.1c-0.3-1.1.6-1.1,0.4-2.2a1,1,0,0,0,.7-1.1c0.5-.1.3-0.9,0.4-1.5s0.2-1.6.4-2.2,0.2-1.6.4-2.2v-7.7c-0.2-.6.4-2.2-0.4-2.2s0.4-2.2-.4-2.2,0.1-1.4-.4-1.5-0.2-2.5-1.1-2.9a1.6,1.6,0,0,0-.7-1.5A2.4,2.4,0,0,0,360.7,229.8Z"/><path class="m" d="M213.3,232a16.8,16.8,0,0,0,3.3,3.3c0.9,1.3,1.3,3.1,2.6,4v0.4a1.6,1.6,0,0,0,.7,1.5v0.4a1.6,1.6,0,0,0,.7,1.5v0.4a3,3,0,0,0,.7,2.2v0.4c-0.3,1.3.5,1.4,0.4,2.6s-0.2,1.4.4,1.5v1.1c0,0.6-.2,1.4.4,1.5v0.7c0.2,1.1-.5,3.2.4,3.7v5.1c-0.8.4-.1,2.3-0.4,3.3v0.7c-0.5.1-.3,0.9-0.4,1.5v1.1c-0.5.1-.3,0.9-0.4,1.5s-0.5,1.4-.4,2.6v0.4c-0.5.1-.3,0.9-0.4,1.5s-0.3.7-.4,1.1-1,2.1-1.5,3.3a1.6,1.6,0,0,0-.7,1.5v0.4a1,1,0,0,0-.7,1.1c-0.5.1-.4,0.8-0.7,1.1a1.1,1.1,0,0,0-.7.7,10.2,10.2,0,0,0-2.6,2.6c-0.6,1.1-2.7.7-3.3,1.8h-2.6c-0.1-.5-0.9-0.3-1.5-0.4s-0.8-.7-1.8-0.4l-1.5-.7a45.2,45.2,0,0,0-3.3-3.3c-0.4-.5-0.3-1.4-1.1-1.5a25.6,25.6,0,0,0-1.8-2.9c-0.2-.5.4-1.9-0.4-1.8a1.8,1.8,0,0,0-.7-1.8v-0.4a3,3,0,0,0-.7-2.2v-0.4c0-.6.2-1.4-0.4-1.5v-1.5c-0.2-.5.4-1.9-0.4-1.8v-2.2c0-.6.2-1.4-0.4-1.5v-8.8c0.5-.1.3-0.9,0.4-1.5v-1.8c0.8,0,.2-1.6.4-2.2v-0.7c0.4-.1.3-0.7,0.4-1.1s0.3-.9.4-1.5v-0.7a1.8,1.8,0,0,0,.7-1.8V243c0-.2.1-0.4,0.4-0.4s0.5-1.2.7-1.8a2.6,2.6,0,0,0,.7-1.1v-1.8h0.4c0.4,0,.3-0.4.4-0.7a1,1,0,0,0,.7-1.1c0.3,0.1.3-.1,0.4-0.4a1.9,1.9,0,0,0,1.1-1.1,5.2,5.2,0,0,0,1.8-1.8c0.6-.6,1.6-0.8,2.2-1.5s1.3-.7,2.6-0.4h1.8c1.2-.2,1.3.7,2.6,0.4a0.6,0.6,0,0,0,.7.4C212.6,232,213,231.9,213.3,232Zm-6.2,2.6c-0.2,0-.4.1-0.4,0.4h-0.4a1.7,1.7,0,0,0-1.1.4,10.1,10.1,0,0,0-2.6,2.6c-0.3.8-1.1,1.1-1.1,2.2s-1.8,2.1-1.5,4.4h-0.4c-0.8.1-.8,0.9-0.7,1.8v0.4a0.6,0.6,0,0,0-.4.7c-0.8-.1-0.2,1.3-0.4,1.8V250c-0.4.1-.4,0.6-0.4,1.1s-0.3.9-.4,1.5v1.1c-0.8-.1-0.2,1.3-0.4,1.8v7.7c0.2,0.5-.4,1.9.4,1.8v1.5c0.1,0.6-.1,1.4.4,1.5s-0.1,1,.4,1.1v0.7c0.2,0.5-.4,1.9.4,1.8s0,0.7.4,0.7,0.1,1.4.7,1.5v0.7c-0.1,1.7.6,2.6,1.1,3.7s0.8,2.1,1.1,1.1,0.2,1.7,1.1,1.8v0.4a5.2,5.2,0,0,0,1.8,1.8h0.4c0,0.5.6,0.3,0.7,0.7h0.7a0.6,0.6,0,0,0,.7.4c-0.3.6,1.7,0.6,1.5,0s1,0.1,1.1-.4,0.7,0,.7-0.4a5.2,5.2,0,0,0,2.6-2.2v-0.4a1.6,1.6,0,0,0,.7-1.5,5.7,5.7,0,0,0,2.2-4.4c0.6,0,.2-1,0.7-1.1s0.1,0.4.4,0.4c0-1.6.9-2.3,0.7-4v-0.4c0.4-.1.4-0.6,0.4-1.1s0.3-.9.4-1.5v-0.7c0.5-.1.3-0.9,0.4-1.5v-1.8a18,18,0,0,0,0-8.1v-0.7c-0.2-.8.5-2.4-0.4-2.6v-0.4c-0.2-.5.4-1.9-0.4-1.8s0.1-1-.4-1.1,0.1-1.4-.4-1.5a2.4,2.4,0,0,1-.4-1.5v-0.7c0.1-.8-0.1-1.4-0.7-1.5s-1.1-.8-0.7-2.2a1,1,0,0,0-.7-1.1v-0.4a5.3,5.3,0,0,0-1.8-2.6v-0.4a3.3,3.3,0,0,0-1.5-1.5l-1.5-.7a1.6,1.6,0,0,0-1.5-.7C208.4,234.4,207,233.8,207.1,234.6Z"/><path class="m" d="M315.6,14.3V13.6h1.1v0.4c0.2,0.6-.4,2.2.4,2.2v2.6c0,0.6-.2,1.4.4,1.5s-0.4,1.9.4,1.8v1.1c0.2,0.9-.5,2.7.4,2.9s-0.4,1.9.4,1.8v2.9c0,0.6-.2,1.4.4,1.5s-0.2,1.4.4,1.5v2.9c0,0.6-.2,1.4.4,1.5v1.5c0,0.6-.2,1.4.4,1.5s-0.4,2.2.4,2.2v0.4h-2.2V40c-0.2-.5.4-1.9-0.4-1.8V35.9c-0.2-.5.4-1.9-0.4-1.8V31.9c0-.6.2-1.4-0.4-1.5V28.2c-0.2-.5.4-1.9-0.4-1.8V24.2c0-.6.2-1.4-0.4-1.5V20.5c-0.2-.5.4-1.9-0.4-1.8V16.1c0-.6.2-1.4-0.4-1.5V14.3Z"/><path class="m" d="M220.3,106.3v1.1c-0.5.1-.3,0.9-0.4,1.5s-0.2,1.6-.4,2.2v1.1c-0.4.1-.3,0.7-0.4,1.1s-0.2,1.3-.4,1.8v0.7c-0.4.1-.3,0.7-0.4,1.1s-0.2,1.6-.4,2.2-0.3.4-.4,0.7-0.3.9-.4,1.5a35.9,35.9,0,0,1-2.9,7.3,1,1,0,0,0-.7,1.1,11.4,11.4,0,0,1-2.2,3.3,2.4,2.4,0,0,0-.7.4,1.5,1.5,0,0,0-1.5,1.1c-0.2,0-.4.1-0.4,0.4s-1.3.2-1.8,0.4v0.4c-0.6.2-2.2-.4-2.2,0.4H181.4c-4,.2-9-0.5-12.5.4H158.3c-2.3.2-5.6-.5-7.3,0.4h-6.6c-1.6.2-4.1-.5-5.1,0.4h-5.5c-1.2.2-3.4-.5-4,0.4h-4.4c-1.1.2-3.2-.5-3.7,0.4h-4c-1,.2-2.9-0.5-3.3.4h-3.3c-0.9.2-2.7-.5-2.9,0.4h-3.3c-0.8.2-2.4-.5-2.6,0.4H99c-0.6.2-2.2-.4-2.2,0.4H94.2c-0.8.2-2.4-.5-2.6,0.4H89.1c-0.6.2-2.2-.4-2.2,0.4H84.7c-0.6.2-2.2-.4-2.2,0.4H78.8c-0.4-1.1.8-.6,1.5-0.7s1.4,0.2,1.5-.4h1.8c0.6,0,1.4.2,1.5-.4s2.2,0.4,2.2-.4h2.9c0.5-.2,1.9.4,1.8-0.4h1.8c0.6,0,1.4.2,1.5-.4h1.8c0.6,0,1.4.2,1.5-.4h2.2c0.6,0,1.4.2,1.5-.4h2.2c0.5-.2,1.9.4,1.8-0.4h2.6c0.5-.2,1.9.4,1.8-0.4h2.2c0.6-.2,2.2.4,2.2-0.4H118c0.5-.2,1.9.4,1.8-0.4h2.6c0.8-.2,2.4.5,2.6-0.4h2.9c0.8-.2,2.4.5,2.6-0.4h2.9c0.9-.2,2.7.5,2.9-0.4H140c0.9-.2,2.7.5,2.9-0.4h4c1.1-.2,3.2.5,3.7-0.4h4.8c1.2-.2,3.4.5,4-0.4h5.5c1.7-.2,4.4.5,5.5-0.4H177c2.2-.2,5.4.5,7-0.4h9.9c3.4-.2,7.8.5,10.6-0.4,0.5,0,1,.1,1.1-0.4s0.3-.1.4-0.4h0.7a1,1,0,0,0,1.1-.7c0.7-.6,1.7-1,1.8-2.2s0.3-1.4,1.1-1.5a4.3,4.3,0,0,0,1.5-2.9v-0.4c0.8-.1.1-1.6,0.7-1.8s0.7-1.2.7-2.2-0.1-1,.4-1.1,0.2-1.3.4-1.8,0.3-.7.4-1.1,0.2-1.3.4-1.8v-0.7c0.4-.1.3-0.7,0.4-1.1s0.2-1.6.4-2.2v-0.7c0.5-.1.3-0.9,0.4-1.5s0.1-1.8.4-2.6v-1.1c0.8,0.1.2-1.3,0.4-1.8s0.1-2.3.4-3.3,0.3-.9.4-1.5V95.3c0.8,0.1.2-1.3,0.4-1.8V90.9c0.8,0.1.2-1.3,0.4-1.8V85.4c-0.3-.8-2.1-0.1-2.9-0.4H214c-0.9-.8-3.3-0.1-4.8-0.4h-6.6c-2.1-.9-5.7-0.1-8.4-0.4H166.8c-2.3.2-5.6-.5-7.3,0.4h-6.2c-1.6.2-4.1-.5-5.1,0.4h-4.8c-1.2.2-3.4-.5-4,0.4h-4.4c-0.9.2-2.7-.5-2.9,0.4h-3.7c-0.9.2-2.7-.5-2.9,0.4h-2.9c-0.6.2-2.2-.4-2.2,0.4h-2.9c-0.6.2-2.2-.4-2.2,0.4h-2.6c-0.5.2-1.9-.4-1.8,0.4h-2.6c-0.5.2-1.9-.4-1.8,0.4h-2.6c-0.5.2-1.9-.4-1.8,0.4h-1.8c-0.6.2-2.2-.4-2.2,0.4H95.7c-0.6,0-1.4-.2-1.5.4H92c-0.6,0-1.4-.2-1.5.4H88.3c-0.6,0-1.4-.2-1.5.4H84.7c-0.6,0-1.4-.2-1.5.4H82.1c-1.2.3-.6-0.8-0.4-1.1h1.1c0.8-.2,2.4.5,2.6-0.4s1.4,0.1,1.5-.4H88c0.9-.2,2.7.5,2.9-0.4s1.9,0.4,1.8-.4h2.6c0.6,0,1.4.2,1.5-.4h1.5c0.6,0,1.4.2,1.5-.4s2.7,0.5,2.9-.4h1.8c0.6,0,1.4.2,1.5-.4h1.8c0.6,0,1.4.2,1.5-.4H110c0.8-.2,2.4.5,2.6-0.4h2.2c0.6,0,1.4.2,1.5-.4h2.2c0.6,0,1.4.2,1.5-.4H122c0.5-.2,1.9.4,1.8-0.4h2.6c0.6,0,1.4.2,1.5-.4h2.6c0.6-.2,2.2.4,2.2-0.4h2.6c0.6-.2,2.2.4,2.2-0.4h2.9c0.8-.2,2.4.5,2.6-0.4h3.7c0.8-.2,2.4.5,2.6-0.4h3.7c1.1-.2,3.2.5,3.7-0.4h4.8c1.4-.2,3.7.5,4.4-0.4h6.6c3.1-.2,7.1.5,9.5-0.4h15.8c2.6,0.9,6.7.1,9.9,0.4h7c0.9,0.8,3.3.1,4.8,0.4h1.5a3.3,3.3,0,0,0,1.5,1.5V88c-0.8-.1-0.2,1.3-0.4,1.8v2.6c-0.8-.1-0.2,1.3-0.4,1.8v2.2c-0.8-.1-0.2,1.3-0.4,1.8v1.8c-0.5.1-.3,0.9-0.4,1.5v1.8C219.8,103.6,220.5,105.4,220.3,106.3Z"/><path class="m" d="M116.9,141.5h0.7a2.1,2.1,0,0,1-.4,1.5,0.6,0.6,0,0,1-.7.4,1.5,1.5,0,0,0-1.5,1.1,2.4,2.4,0,0,0-.7.4,1,1,0,0,0-1.1.7c-0.5.4-1.5,0.5-1.8,1.1s-1.4.1-1.5,0.7a0.6,0.6,0,0,1-.7.4,1,1,0,0,0-1.1.7c-0.2,0-.4.1-0.4,0.4h-0.4a1,1,0,0,0-1.1.7c0,0.6-1,.2-1.1.7s-1.4.1-1.5,0.7-1,.2-1.1.7-1.4.1-1.5,0.7-1,1.2-2.2,1.1a2,2,0,0,0-1.8,1.1,6.8,6.8,0,0,1-2.2,1.1,2,2,0,0,0-1.8,1.1,1.6,1.6,0,0,1-1.5.7V158c-0.6,0-1.3,0-1.1.7-1.5-.1-1.9.8-2.9,1.1a4.3,4.3,0,0,0-2.9,1.5,1,1,0,0,0-1.1.7c0.3,1-1.7-.3-1.5.7-1.9.8-3.4,2-5.5,2.6s-1.3,1.1-2.6,1.1-0.5-.5-0.4-1.1,0.8-.4,1.1-0.7a2.9,2.9,0,0,0,1.8-1.5,1,1,0,0,0,1.1-.7,4,4,0,0,0,2.2-1.8,2.4,2.4,0,0,0,.7-0.4,1,1,0,0,0,1.1-.7,1,1,0,0,1,1.1-.7,1.5,1.5,0,0,0,1.5-1.1c0.4-.8,1.8-0.6,2.2-1.5a1,1,0,0,0,1.1-.7,2.4,2.4,0,0,0,.7-0.4,1,1,0,0,0,1.1-.7h0.4a1,1,0,0,0,1.1-.7,1,1,0,0,0,1.1-.7h0.4a2,2,0,0,0,1.8-1.1c0.6-.7,2.1-0.6,2.6-1.5a4.3,4.3,0,0,0,2.9-1.5c0.8,0.1,1.4-.1,1.5-0.7a1.6,1.6,0,0,0,1.5-.7,1.8,1.8,0,0,0,1.8-.7c0.8,0.1,1.4-.1,1.5-0.7s1.8-.9,2.9-1.1a1,1,0,0,0,1.1-.7h0.7a1.8,1.8,0,0,0,1.8-.7h-0.4C113.5,142.4,115.5,142.3,116.9,141.5Z"/><path class="m" d="M7.3,238.6H8.4c2.1,0.9,5.7.1,8.4,0.4H37c9.9,0.9,21.4.1,31.9,0.4H94.2c6.5,0.9,14.5.1,21.6,0.4h18.7c3.5,0.9,8.7.1,12.8,0.4h11.4c2.7,0.9,7,.1,10.3.4h9.2c1.6,0.8,4.8.1,7,.4,0.3,1.3-1.4.5-2.2,0.7s-4.4-.5-5.5.4h-6.2c-2,.2-4.9-0.5-6.2.4h-7.3c-2.1.2-5.1-.5-6.6,0.4h-8.4c-3.4.2-7.8-.5-10.6,0.4H87.2c-2.6-.9-6.7-0.1-9.9-0.4H67.8c-2-.9-5.5-0.1-8.1-0.4H53.1c-0.9-.8-3.3-0.1-4.8-0.4H44c-0.4-.8-2.3-0.1-3.3-0.4H36.3c-0.3-.8-2.1-0.1-2.9-0.4H29.7c-0.3-.8-2.1-0.1-2.9-0.4H23.1c-0.2-.8-1.8-0.1-2.6-0.4H17.6c0-.8-1.6-0.2-2.2-0.4H12.1c0.1-.8-1.3-0.2-1.8-0.4H8.4c-0.6,0-1.3,0-1.1-.7v-0.4Z"/><path class="m" d="M397.7,240.4v-0.4c-0.2-2,1.4-.7,1.5,0v4c0.2,1.1-.5,3.2.4,3.7v5.9c-0.8.3-.1,2.1-0.4,2.9v2.9c-0.4.1-.4,0.6-0.4,1.1s-0.2,1.3-.4,1.8v0.7a1.8,1.8,0,0,0-.7,1.8c0.4,1.4-.9,1-0.7,2.2s-0.4,1.6-1.1,1.8-3,2.1-2.6,2.6V272h-0.7c-0.1.5-.8,0.4-1.1,0.7s-1.8.6-3.3,0.4h-0.7c-1.8-.9-5.2-0.1-7.7-0.4h-3.3c-0.2-.8-1.8-0.1-2.6-0.4h-2.6c0-.8-1.6-0.2-2.2-0.4a2.4,2.4,0,0,1,.4-0.7c0-.2.1-0.4,0.4-0.4H372c0.6-.2,2.2.4,2.2-0.4h2.6c0.8-.2,2.4.5,2.6-0.4h1.1c1-.2,2.9.5,3.3-0.4h1.1c1.5-.2,3.9.5,4.8-0.4s0.6-.6,1.1-0.7a5.2,5.2,0,0,0,1.8-1.8c0-1.1,1-1.2,1.1-2.2a1.6,1.6,0,0,0,.7-1.5c0-1.5.7-2.2,0.7-3.7v-0.7c0.5-.1.3-0.9,0.4-1.5s0.4-.6.4-1.1,0.3-.9.4-1.5V254c0.8,0.1.2-1.3,0.4-1.8v-1.5c0.8-.2.1-1.8,0.4-2.6V247c0.8,0.1.2-1.3,0.4-1.8v-1.8C398.1,243.1,397.4,241.3,397.7,240.4Z"/></svg>